<?xml version="1.0" encoding="utf-8" standalone="no"?>
<!DOCTYPE svg PUBLIC "-//W3C//DTD SVG 1.1//EN"
  "http://www.w3.org/Graphics/SVG/1.1/DTD/svg11.dtd">
<svg xmlns:xlink="http://www.w3.org/1999/xlink" width="460.8pt" height="457.92pt" viewBox="0 0 460.8 457.92" xmlns="http://www.w3.org/2000/svg" version="1.1">
 <metadata>
  <rdf:RDF xmlns:dc="http://purl.org/dc/elements/1.1/" xmlns:cc="http://creativecommons.org/ns#" xmlns:rdf="http://www.w3.org/1999/02/22-rdf-syntax-ns#">
   <cc:Work>
    <dc:type rdf:resource="http://purl.org/dc/dcmitype/StillImage"/>
    <dc:date>2023-03-20T09:01:15.331787</dc:date>
    <dc:format>image/svg+xml</dc:format>
    <dc:creator>
     <cc:Agent>
      <dc:title>Matplotlib v3.7.0, https://matplotlib.org/</dc:title>
     </cc:Agent>
    </dc:creator>
   </cc:Work>
  </rdf:RDF>
 </metadata>
 <defs>
  <style type="text/css">*{stroke-linejoin: round; stroke-linecap: butt}</style>
 </defs>
 <g id="figure_1">
  <g id="patch_1">
   <path d="M 0 457.92 
L 460.8 457.92 
L 460.8 0 
L 0 0 
L 0 457.92 
z
" style="fill: none"/>
  </g>
  <g id="axes_1">
   <g id="patch_2">
    <path d="M 273.366 399.7152 
L 304.614 399.7152 
L 304.614 368.6688 
L 273.366 368.6688 
z
" clip-path="url(#pe67aee69ce)" style="fill: #f9f4ff; opacity: 0.096783; stroke: #f9f4ff; stroke-linejoin: miter"/>
   </g>
   <g id="patch_3">
    <path d="M 273.366 360.9072 
L 304.614 360.9072 
L 304.614 329.8608 
L 273.366 329.8608 
z
" clip-path="url(#pe67aee69ce)" style="fill: #f9f4ff; opacity: 0.075902; stroke: #f9f4ff; stroke-linejoin: miter"/>
   </g>
   <g id="patch_4">
    <path d="M 273.366 322.0992 
L 304.614 322.0992 
L 304.614 291.0528 
L 273.366 291.0528 
z
" clip-path="url(#pe67aee69ce)" style="fill: #f8f5ff; opacity: 0.148676; stroke: #f8f5ff; stroke-linejoin: miter"/>
   </g>
   <g id="patch_5">
    <path d="M 273.366 283.2912 
L 304.614 283.2912 
L 304.614 252.2448 
L 273.366 252.2448 
z
" clip-path="url(#pe67aee69ce)" style="fill: #f8f5ff; opacity: 0.157007; stroke: #f8f5ff; stroke-linejoin: miter"/>
   </g>
   <g id="patch_6">
    <path d="M 273.366 244.4832 
L 304.614 244.4832 
L 304.614 213.4368 
L 273.366 213.4368 
z
" clip-path="url(#pe67aee69ce)" style="fill: #f1fafe; stroke: #f1fafe; stroke-linejoin: miter"/>
   </g>
   <g id="patch_7">
    <path d="M 273.366 205.6752 
L 304.614 205.6752 
L 304.614 174.6288 
L 273.366 174.6288 
z
" clip-path="url(#pe67aee69ce)" style="fill: #f9f4ff; opacity: 0.137098; stroke: #f9f4ff; stroke-linejoin: miter"/>
   </g>
   <g id="patch_8">
    <path d="M 273.366 166.8672 
L 304.614 166.8672 
L 304.614 135.8208 
L 273.366 135.8208 
z
" clip-path="url(#pe67aee69ce)" style="fill: #f9f4ff; opacity: 0.071864; stroke: #f9f4ff; stroke-linejoin: miter"/>
   </g>
   <g id="patch_9">
    <path d="M 273.366 128.0592 
L 304.614 128.0592 
L 304.614 97.0128 
L 273.366 97.0128 
z
" clip-path="url(#pe67aee69ce)" style="fill: #f9f4ff; opacity: 0.099176; stroke: #f9f4ff; stroke-linejoin: miter"/>
   </g>
   <g id="patch_10">
    <path d="M 273.366 89.2512 
L 304.614 89.2512 
L 304.614 58.2048 
L 273.366 58.2048 
z
" clip-path="url(#pe67aee69ce)" style="fill: #f9f4ff; opacity: 0.071755; stroke: #f9f4ff; stroke-linejoin: miter"/>
   </g>
   <g id="line2d_1">
    <path d="M 269.46 403.596 
L 308.52 403.596 
L 308.52 54.324 
L 269.46 54.324 
L 269.46 403.596 
" clip-path="url(#pe67aee69ce)" style="fill: none; stroke: #f2fafe; stroke-width: 1.5; stroke-linecap: square"/>
   </g>
   <g id="line2d_2">
    <path d="M 230.4 450.72 
L 230.4 7.2 
" clip-path="url(#pe67aee69ce)" style="fill: none; stroke: #f2fafe; stroke-width: 1.5; stroke-linecap: square"/>
   </g>
   <g id="line2d_3">
    <path d="M 7.2 248.364 
L 453.6 248.364 
" clip-path="url(#pe67aee69ce)" style="fill: none; stroke: #f6f7ff; stroke-width: 1.5; stroke-linecap: square"/>
   </g>
   <g id="text_1">
    <!-- Etter å ha fullført emnet: -->
    <g style="fill: #f2fafe" transform="translate(11.9715 194.831687) scale(0.2 -0.2)">
     <defs>
      <path id="Avenir-Book-45" d="M 1075 422 
L 3501 422 
L 3501 0 
L 614 0 
L 614 4531 
L 3424 4531 
L 3424 4109 
L 1075 4109 
L 1075 2566 
L 3270 2566 
L 3270 2144 
L 1075 2144 
L 1075 422 
z
" transform="scale(0.015625)"/>
      <path id="Avenir-Book-74" d="M 2010 2611 
L 1146 2611 
L 1146 845 
Q 1146 678 1178 572 
Q 1210 467 1267 409 
Q 1325 352 1405 329 
Q 1485 307 1581 307 
Q 1690 307 1805 339 
Q 1920 371 2016 422 
L 2035 32 
Q 1798 -77 1466 -77 
Q 1344 -77 1213 -45 
Q 1082 -13 973 76 
Q 864 166 793 320 
Q 723 474 723 723 
L 723 2611 
L 90 2611 
L 90 2995 
L 723 2995 
L 723 3840 
L 1146 3840 
L 1146 2995 
L 2010 2995 
L 2010 2611 
z
" transform="scale(0.015625)"/>
      <path id="Avenir-Book-65" d="M 2790 1728 
Q 2790 2157 2534 2422 
Q 2278 2688 1818 2688 
Q 1613 2688 1421 2608 
Q 1229 2528 1085 2393 
Q 941 2259 854 2086 
Q 768 1914 768 1728 
L 2790 1728 
z
M 755 1382 
Q 774 1158 864 960 
Q 954 762 1101 618 
Q 1248 474 1440 390 
Q 1632 307 1856 307 
Q 2195 307 2441 464 
Q 2688 621 2816 826 
L 3142 557 
Q 2874 218 2550 70 
Q 2227 -77 1856 -77 
Q 1523 -77 1238 41 
Q 954 160 749 371 
Q 544 582 425 870 
Q 307 1158 307 1498 
Q 307 1837 422 2125 
Q 538 2413 742 2624 
Q 947 2835 1222 2953 
Q 1498 3072 1818 3072 
Q 2157 3072 2425 2950 
Q 2694 2829 2876 2627 
Q 3059 2426 3155 2154 
Q 3251 1882 3251 1574 
L 3251 1382 
L 755 1382 
z
" transform="scale(0.015625)"/>
      <path id="Avenir-Book-72" d="M 506 2061 
Q 506 2259 496 2464 
Q 486 2669 480 2995 
L 896 2995 
L 896 2438 
L 909 2438 
Q 954 2560 1037 2672 
Q 1120 2784 1238 2873 
Q 1357 2963 1513 3017 
Q 1670 3072 1869 3072 
Q 2048 3072 2182 3034 
L 2099 2618 
Q 2016 2650 1856 2650 
Q 1613 2650 1440 2557 
Q 1267 2464 1152 2320 
Q 1037 2176 982 2009 
Q 928 1843 928 1690 
L 928 0 
L 506 0 
L 506 2061 
z
" transform="scale(0.015625)"/>
      <path id="Avenir-Book-20" transform="scale(0.015625)"/>
      <path id="Avenir-Book-e5" d="M 2163 1491 
Q 2003 1491 1763 1475 
Q 1523 1459 1302 1398 
Q 1082 1338 925 1210 
Q 768 1082 768 858 
Q 768 710 829 604 
Q 890 499 992 432 
Q 1094 365 1219 336 
Q 1344 307 1472 307 
Q 1702 307 1872 384 
Q 2042 461 2157 592 
Q 2272 723 2326 899 
Q 2381 1075 2381 1274 
L 2381 1491 
L 2163 1491 
z
M 2381 1837 
L 2381 1914 
Q 2381 2688 1613 2688 
Q 1088 2688 698 2336 
L 442 2637 
Q 864 3072 1709 3072 
Q 1926 3072 2128 3008 
Q 2330 2944 2477 2813 
Q 2624 2682 2713 2483 
Q 2803 2285 2803 2010 
L 2803 672 
Q 2803 499 2819 310 
Q 2835 122 2854 0 
L 2445 0 
Q 2426 109 2416 237 
Q 2406 365 2406 486 
L 2394 486 
Q 2208 186 1955 54 
Q 1702 -77 1338 -77 
Q 1139 -77 953 -22 
Q 768 32 624 144 
Q 480 256 393 419 
Q 307 582 307 800 
Q 307 1165 496 1373 
Q 685 1581 969 1683 
Q 1254 1786 1577 1811 
Q 1901 1837 2170 1837 
L 2381 1837 
z
M 2048 4160 
Q 2048 4320 1936 4429 
Q 1824 4538 1664 4538 
Q 1504 4538 1392 4429 
Q 1280 4320 1280 4160 
Q 1280 4000 1392 3891 
Q 1504 3782 1664 3782 
Q 1824 3782 1936 3891 
Q 2048 4000 2048 4160 
z
M 2278 4160 
Q 2278 4032 2230 3920 
Q 2182 3808 2096 3725 
Q 2010 3642 1898 3597 
Q 1786 3552 1664 3552 
Q 1536 3552 1427 3597 
Q 1318 3642 1232 3725 
Q 1146 3808 1098 3920 
Q 1050 4032 1050 4160 
Q 1050 4288 1098 4400 
Q 1146 4512 1232 4592 
Q 1318 4672 1427 4720 
Q 1536 4768 1664 4768 
Q 1786 4768 1898 4720 
Q 2010 4672 2096 4592 
Q 2182 4512 2230 4400 
Q 2278 4288 2278 4160 
z
" transform="scale(0.015625)"/>
      <path id="Avenir-Book-68" d="M 461 4838 
L 883 4838 
L 883 2515 
L 896 2515 
Q 966 2637 1075 2739 
Q 1184 2842 1318 2915 
Q 1453 2989 1603 3030 
Q 1754 3072 1901 3072 
Q 2477 3072 2752 2768 
Q 3027 2464 3027 1901 
L 3027 0 
L 2605 0 
L 2605 1658 
Q 2605 2157 2432 2422 
Q 2259 2688 1792 2688 
Q 1760 2688 1613 2662 
Q 1466 2637 1302 2521 
Q 1139 2406 1011 2176 
Q 883 1946 883 1536 
L 883 0 
L 461 0 
L 461 4838 
z
" transform="scale(0.015625)"/>
      <path id="Avenir-Book-61" d="M 2163 1491 
Q 2003 1491 1763 1475 
Q 1523 1459 1302 1398 
Q 1082 1338 925 1210 
Q 768 1082 768 858 
Q 768 710 829 604 
Q 890 499 992 432 
Q 1094 365 1219 336 
Q 1344 307 1472 307 
Q 1702 307 1872 384 
Q 2042 461 2157 592 
Q 2272 723 2326 899 
Q 2381 1075 2381 1274 
L 2381 1491 
L 2163 1491 
z
M 2381 1837 
L 2381 1914 
Q 2381 2688 1613 2688 
Q 1088 2688 698 2336 
L 442 2637 
Q 864 3072 1709 3072 
Q 1926 3072 2128 3008 
Q 2330 2944 2477 2813 
Q 2624 2682 2713 2483 
Q 2803 2285 2803 2010 
L 2803 672 
Q 2803 499 2819 310 
Q 2835 122 2854 0 
L 2445 0 
Q 2426 109 2416 237 
Q 2406 365 2406 486 
L 2394 486 
Q 2208 186 1955 54 
Q 1702 -77 1338 -77 
Q 1139 -77 953 -22 
Q 768 32 624 144 
Q 480 256 393 419 
Q 307 582 307 800 
Q 307 1165 496 1373 
Q 685 1581 969 1683 
Q 1254 1786 1577 1811 
Q 1901 1837 2170 1837 
L 2381 1837 
z
" transform="scale(0.015625)"/>
      <path id="Avenir-Book-66" d="M 1856 2611 
L 1146 2611 
L 1146 0 
L 723 0 
L 723 2611 
L 90 2611 
L 90 2995 
L 723 2995 
L 723 3814 
Q 723 4410 998 4662 
Q 1274 4915 1728 4915 
Q 1818 4915 1910 4902 
Q 2003 4890 2093 4870 
L 2016 4486 
Q 1939 4506 1856 4518 
Q 1773 4531 1690 4531 
Q 1517 4531 1408 4473 
Q 1299 4416 1241 4310 
Q 1184 4205 1165 4064 
Q 1146 3923 1146 3763 
L 1146 2995 
L 1856 2995 
L 1856 2611 
z
" transform="scale(0.015625)"/>
      <path id="Avenir-Book-75" d="M 2624 0 
Q 2611 122 2608 240 
Q 2605 358 2605 480 
L 2592 480 
Q 2522 358 2413 256 
Q 2304 154 2169 80 
Q 2035 6 1884 -35 
Q 1734 -77 1587 -77 
Q 1011 -77 736 227 
Q 461 531 461 1094 
L 461 2995 
L 883 2995 
L 883 1338 
Q 883 1088 921 896 
Q 960 704 1053 573 
Q 1146 442 1302 374 
Q 1459 307 1696 307 
Q 1728 307 1875 332 
Q 2022 358 2185 473 
Q 2349 589 2477 819 
Q 2605 1050 2605 1459 
L 2605 2995 
L 3027 2995 
L 3027 659 
Q 3027 538 3036 352 
Q 3046 166 3059 0 
L 2624 0 
z
" transform="scale(0.015625)"/>
      <path id="Avenir-Book-6c" d="M 979 0 
L 557 0 
L 557 4838 
L 979 4838 
L 979 0 
z
" transform="scale(0.015625)"/>
      <path id="Avenir-Book-f8" d="M 3117 2541 
Q 3290 2342 3389 2076 
Q 3488 1811 3488 1498 
Q 3488 1158 3369 870 
Q 3251 582 3040 371 
Q 2829 160 2537 41 
Q 2246 -77 1894 -77 
Q 1587 -77 1334 12 
Q 1082 102 890 256 
L 461 -179 
L 256 19 
L 678 454 
Q 499 659 403 924 
Q 307 1190 307 1498 
Q 307 1837 425 2125 
Q 544 2413 755 2624 
Q 966 2835 1257 2953 
Q 1549 3072 1894 3072 
Q 2195 3072 2451 2985 
Q 2707 2899 2912 2739 
L 3334 3174 
L 3539 2976 
L 3117 2541 
z
M 2618 2438 
Q 2330 2688 1894 2688 
Q 1632 2688 1424 2595 
Q 1216 2502 1072 2342 
Q 928 2182 848 1964 
Q 768 1747 768 1498 
Q 768 1062 986 768 
L 2618 2438 
z
M 1178 550 
Q 1318 435 1497 371 
Q 1677 307 1894 307 
Q 2157 307 2365 400 
Q 2573 493 2720 653 
Q 2867 813 2947 1030 
Q 3027 1248 3027 1498 
Q 3027 1914 2810 2227 
L 1178 550 
z
" transform="scale(0.015625)"/>
      <path id="Avenir-Book-6d" d="M 461 2330 
Q 461 2496 451 2662 
Q 442 2829 429 2995 
L 883 2995 
L 883 2541 
L 896 2541 
Q 1050 2803 1322 2937 
Q 1594 3072 1862 3072 
Q 1984 3072 2121 3046 
Q 2259 3021 2387 2953 
Q 2515 2886 2627 2764 
Q 2739 2643 2816 2451 
Q 2944 2739 3222 2905 
Q 3501 3072 3802 3072 
Q 4378 3072 4653 2768 
Q 4928 2464 4928 1901 
L 4928 0 
L 4506 0 
L 4506 1747 
Q 4506 2202 4346 2445 
Q 4186 2688 3750 2688 
Q 3514 2688 3354 2595 
Q 3194 2502 3094 2348 
Q 2995 2195 2950 2000 
Q 2906 1805 2906 1594 
L 2906 0 
L 2483 0 
L 2483 1747 
Q 2483 2202 2323 2445 
Q 2163 2688 1728 2688 
Q 1690 2688 1552 2662 
Q 1414 2637 1267 2521 
Q 1120 2406 1001 2176 
Q 883 1946 883 1536 
L 883 0 
L 461 0 
L 461 2330 
z
" transform="scale(0.015625)"/>
      <path id="Avenir-Book-6e" d="M 864 2995 
Q 877 2874 880 2755 
Q 883 2637 883 2515 
L 896 2515 
Q 966 2637 1075 2739 
Q 1184 2842 1318 2915 
Q 1453 2989 1603 3030 
Q 1754 3072 1901 3072 
Q 2477 3072 2752 2768 
Q 3027 2464 3027 1901 
L 3027 0 
L 2605 0 
L 2605 1658 
Q 2605 2157 2432 2422 
Q 2259 2688 1792 2688 
Q 1760 2688 1613 2662 
Q 1466 2637 1302 2521 
Q 1139 2406 1011 2176 
Q 883 1946 883 1536 
L 883 0 
L 461 0 
L 461 2336 
Q 461 2458 451 2643 
Q 442 2829 429 2995 
L 864 2995 
z
" transform="scale(0.015625)"/>
      <path id="Avenir-Book-3a" d="M 1235 307 
Q 1235 173 1139 67 
Q 1043 -38 890 -38 
Q 736 -38 640 67 
Q 544 173 544 307 
Q 544 442 640 547 
Q 736 653 890 653 
Q 1043 653 1139 547 
Q 1235 442 1235 307 
z
M 1235 2682 
Q 1235 2547 1139 2441 
Q 1043 2336 890 2336 
Q 736 2336 640 2441 
Q 544 2547 544 2682 
Q 544 2816 640 2921 
Q 736 3027 890 3027 
Q 1043 3027 1139 2921 
Q 1235 2816 1235 2682 
z
" transform="scale(0.015625)"/>
     </defs>
     <use xlink:href="#Avenir-Book-45"/>
     <use xlink:href="#Avenir-Book-74" x="59.299988"/>
     <use xlink:href="#Avenir-Book-74" x="92.499985"/>
     <use xlink:href="#Avenir-Book-65" x="125.699982"/>
     <use xlink:href="#Avenir-Book-72" x="181.299973"/>
     <use xlink:href="#Avenir-Book-20" x="214.499969"/>
     <use xlink:href="#Avenir-Book-e5" x="242.299957"/>
     <use xlink:href="#Avenir-Book-20" x="294.199951"/>
     <use xlink:href="#Avenir-Book-68" x="321.999939"/>
     <use xlink:href="#Avenir-Book-61" x="377.59993"/>
     <use xlink:href="#Avenir-Book-20" x="429.499924"/>
     <use xlink:href="#Avenir-Book-66" x="457.299911"/>
     <use xlink:href="#Avenir-Book-75" x="486.899902"/>
     <use xlink:href="#Avenir-Book-6c" x="542.499893"/>
     <use xlink:href="#Avenir-Book-6c" x="566.499878"/>
     <use xlink:href="#Avenir-Book-66" x="590.499863"/>
     <use xlink:href="#Avenir-Book-f8" x="620.099854"/>
     <use xlink:href="#Avenir-Book-72" x="679.399841"/>
     <use xlink:href="#Avenir-Book-74" x="712.599838"/>
     <use xlink:href="#Avenir-Book-20" x="745.799835"/>
     <use xlink:href="#Avenir-Book-65" x="773.599823"/>
     <use xlink:href="#Avenir-Book-6d" x="829.199814"/>
     <use xlink:href="#Avenir-Book-6e" x="914.399796"/>
     <use xlink:href="#Avenir-Book-65" x="969.999786"/>
     <use xlink:href="#Avenir-Book-74" x="1025.599777"/>
     <use xlink:href="#Avenir-Book-3a" x="1058.799774"/>
    </g>
   </g>
   <g id="text_2">
    <!-- - kan d -->
    <g style="fill: #f2fafe" transform="translate(76.44025 240.659219) scale(0.5 -0.5)">
     <defs>
      <path id="Avenir-Book-2d" d="M 1888 1325 
L 243 1325 
L 243 1747 
L 1888 1747 
L 1888 1325 
z
" transform="scale(0.015625)"/>
      <path id="Avenir-Book-6b" d="M 883 1645 
L 2298 2995 
L 2931 2995 
L 1440 1626 
L 3091 0 
L 2438 0 
L 883 1574 
L 883 0 
L 461 0 
L 461 4838 
L 883 4838 
L 883 1645 
z
" transform="scale(0.015625)"/>
      <path id="Avenir-Book-64" d="M 717 1498 
Q 717 1248 797 1030 
Q 877 813 1024 653 
Q 1171 493 1379 400 
Q 1587 307 1850 307 
Q 2106 307 2326 400 
Q 2547 493 2707 653 
Q 2867 813 2956 1030 
Q 3046 1248 3046 1498 
Q 3046 1747 2956 1964 
Q 2867 2182 2707 2342 
Q 2547 2502 2326 2595 
Q 2106 2688 1850 2688 
Q 1587 2688 1379 2595 
Q 1171 2502 1024 2342 
Q 877 2182 797 1964 
Q 717 1747 717 1498 
z
M 3450 0 
L 3027 0 
L 3027 499 
L 3014 499 
Q 2912 346 2771 237 
Q 2630 128 2476 57 
Q 2323 -13 2160 -45 
Q 1997 -77 1850 -77 
Q 1498 -77 1206 41 
Q 915 160 704 371 
Q 493 582 374 870 
Q 256 1158 256 1498 
Q 256 1837 374 2125 
Q 493 2413 704 2624 
Q 915 2835 1206 2953 
Q 1498 3072 1850 3072 
Q 1997 3072 2160 3040 
Q 2323 3008 2476 2937 
Q 2630 2867 2771 2758 
Q 2912 2650 3014 2496 
L 3027 2496 
L 3027 4838 
L 3450 4838 
L 3450 0 
z
" transform="scale(0.015625)"/>
     </defs>
     <use xlink:href="#Avenir-Book-2d"/>
     <use xlink:href="#Avenir-Book-20" x="33.299988"/>
     <use xlink:href="#Avenir-Book-6b" x="61.099976"/>
     <use xlink:href="#Avenir-Book-61" x="109.299973"/>
     <use xlink:href="#Avenir-Book-6e" x="161.199966"/>
     <use xlink:href="#Avenir-Book-20" x="216.799957"/>
     <use xlink:href="#Avenir-Book-64" x="244.599945"/>
    </g>
   </g>
   <g id="text_3">
    <!-- ø -->
    <g style="fill: #f9f4ff; opacity: 0.096783" transform="translate(230.362781 395.891219) scale(0.5 -0.5)">
     <use xlink:href="#Avenir-Book-f8"/>
    </g>
   </g>
   <g id="text_4">
    <!-- y -->
    <g style="fill: #f9f4ff; opacity: 0.075902" transform="translate(233.136219 357.083219) scale(0.5 -0.5)">
     <defs>
      <path id="Avenir-Book-79" d="M 1574 518 
L 2490 2995 
L 3002 2995 
L 1504 -781 
Q 1370 -1126 1162 -1331 
Q 954 -1536 563 -1536 
Q 467 -1536 368 -1529 
Q 269 -1523 173 -1491 
L 218 -1082 
Q 352 -1152 538 -1152 
Q 762 -1152 890 -1011 
Q 1018 -870 1114 -614 
L 1331 -38 
L 102 2995 
L 634 2995 
L 1574 518 
z
" transform="scale(0.015625)"/>
     </defs>
     <use xlink:href="#Avenir-Book-79"/>
    </g>
   </g>
   <g id="text_5">
    <!-- e -->
    <g style="fill: #f8f5ff; opacity: 0.148676" transform="translate(231.288562 318.275219) scale(0.5 -0.5)">
     <use xlink:href="#Avenir-Book-65"/>
    </g>
   </g>
   <g id="text_6">
    <!-- a -->
    <g style="fill: #f8f5ff; opacity: 0.157007" transform="translate(232.210437 279.467219) scale(0.5 -0.5)">
     <use xlink:href="#Avenir-Book-61"/>
    </g>
   </g>
   <g id="text_7">
    <!-- u -->
    <g style="fill: #f1fafe" transform="translate(231.288562 240.659219) scale(0.5 -0.5)">
     <use xlink:href="#Avenir-Book-75"/>
    </g>
   </g>
   <g id="text_8">
    <!-- o -->
    <g style="fill: #f9f4ff; opacity: 0.137098" transform="translate(230.362781 201.851219) scale(0.5 -0.5)">
     <defs>
      <path id="Avenir-Book-6f" d="M 3027 1498 
Q 3027 1747 2947 1964 
Q 2867 2182 2720 2342 
Q 2573 2502 2365 2595 
Q 2157 2688 1894 2688 
Q 1632 2688 1424 2595 
Q 1216 2502 1072 2342 
Q 928 2182 848 1964 
Q 768 1747 768 1498 
Q 768 1248 848 1030 
Q 928 813 1072 653 
Q 1216 493 1424 400 
Q 1632 307 1894 307 
Q 2157 307 2365 400 
Q 2573 493 2720 653 
Q 2867 813 2947 1030 
Q 3027 1248 3027 1498 
z
M 3488 1498 
Q 3488 1158 3369 870 
Q 3251 582 3040 371 
Q 2829 160 2537 41 
Q 2246 -77 1894 -77 
Q 1549 -77 1257 41 
Q 966 160 755 371 
Q 544 582 425 870 
Q 307 1158 307 1498 
Q 307 1837 425 2125 
Q 544 2413 755 2624 
Q 966 2835 1257 2953 
Q 1549 3072 1894 3072 
Q 2246 3072 2537 2953 
Q 2829 2835 3040 2624 
Q 3251 2413 3369 2125 
Q 3488 1837 3488 1498 
z
" transform="scale(0.015625)"/>
     </defs>
     <use xlink:href="#Avenir-Book-6f"/>
    </g>
   </g>
   <g id="text_9">
    <!-- r -->
    <g style="fill: #f9f4ff; opacity: 0.071864" transform="translate(236.886219 163.043219) scale(0.5 -0.5)">
     <use xlink:href="#Avenir-Book-72"/>
    </g>
   </g>
   <g id="text_10">
    <!-- i -->
    <g style="fill: #f9f4ff; opacity: 0.099176" transform="translate(239.187 124.235219) scale(0.5 -0.5)">
     <defs>
      <path id="Avenir-Book-69" d="M 1075 4147 
Q 1075 4013 979 3926 
Q 883 3840 768 3840 
Q 653 3840 557 3926 
Q 461 4013 461 4147 
Q 461 4282 557 4368 
Q 653 4454 768 4454 
Q 883 4454 979 4368 
Q 1075 4282 1075 4147 
z
M 979 0 
L 557 0 
L 557 2995 
L 979 2995 
L 979 0 
z
" transform="scale(0.015625)"/>
     </defs>
     <use xlink:href="#Avenir-Book-69"/>
    </g>
   </g>
   <g id="text_11">
    <!-- å -->
    <g style="fill: #f9f4ff; opacity: 0.071755" transform="translate(232.210437 85.427219) scale(0.5 -0.5)">
     <use xlink:href="#Avenir-Book-e5"/>
    </g>
   </g>
   <g id="text_12">
    <!-- kontekst -->
    <g style="fill: #f2fafe" transform="translate(38.333672 290.249609) scale(0.25 -0.25)">
     <defs>
      <path id="Avenir-Book-73" d="M 2048 2285 
Q 1952 2470 1792 2579 
Q 1632 2688 1402 2688 
Q 1293 2688 1181 2662 
Q 1069 2637 979 2582 
Q 890 2528 835 2445 
Q 781 2362 781 2240 
Q 781 2029 928 1933 
Q 1075 1837 1370 1766 
L 1798 1664 
Q 2112 1594 2320 1379 
Q 2528 1165 2528 845 
Q 2528 602 2429 426 
Q 2330 250 2166 138 
Q 2003 26 1792 -25 
Q 1581 -77 1363 -77 
Q 1018 -77 720 54 
Q 422 186 211 506 
L 576 755 
Q 704 550 899 428 
Q 1094 307 1363 307 
Q 1491 307 1619 336 
Q 1747 365 1846 425 
Q 1946 486 2006 582 
Q 2067 678 2067 806 
Q 2067 1030 1900 1129 
Q 1734 1229 1498 1286 
L 1088 1382 
Q 1011 1402 880 1446 
Q 749 1491 624 1580 
Q 499 1670 409 1814 
Q 320 1958 320 2170 
Q 320 2400 413 2573 
Q 506 2746 662 2854 
Q 819 2963 1017 3017 
Q 1216 3072 1427 3072 
Q 1741 3072 2009 2950 
Q 2278 2829 2426 2534 
L 2048 2285 
z
" transform="scale(0.015625)"/>
     </defs>
     <use xlink:href="#Avenir-Book-6b"/>
     <use xlink:href="#Avenir-Book-6f" x="48.199997"/>
     <use xlink:href="#Avenir-Book-6e" x="107.499985"/>
     <use xlink:href="#Avenir-Book-74" x="163.099976"/>
     <use xlink:href="#Avenir-Book-65" x="196.299973"/>
     <use xlink:href="#Avenir-Book-6b" x="251.899963"/>
     <use xlink:href="#Avenir-Book-73" x="300.09996"/>
     <use xlink:href="#Avenir-Book-74" x="342.699951"/>
    </g>
   </g>
   <g id="text_13">
    <!-- prediksjon -->
    <g style="fill: #f2fafe" transform="translate(317.614766 290.249609) scale(0.25 -0.25)">
     <defs>
      <path id="Avenir-Book-70" d="M 3194 1498 
Q 3194 1747 3114 1964 
Q 3034 2182 2886 2342 
Q 2739 2502 2531 2595 
Q 2323 2688 2061 2688 
Q 1798 2688 1580 2595 
Q 1363 2502 1203 2342 
Q 1043 2182 953 1964 
Q 864 1747 864 1498 
Q 864 1248 953 1030 
Q 1043 813 1203 653 
Q 1363 493 1580 400 
Q 1798 307 2061 307 
Q 2323 307 2531 400 
Q 2739 493 2886 653 
Q 3034 813 3114 1030 
Q 3194 1248 3194 1498 
z
M 461 2995 
L 883 2995 
L 883 2496 
L 896 2496 
Q 998 2650 1139 2758 
Q 1280 2867 1433 2937 
Q 1587 3008 1750 3040 
Q 1914 3072 2061 3072 
Q 2413 3072 2704 2953 
Q 2995 2835 3206 2624 
Q 3418 2413 3536 2125 
Q 3654 1837 3654 1498 
Q 3654 1158 3536 870 
Q 3418 582 3206 371 
Q 2995 160 2704 41 
Q 2413 -77 2061 -77 
Q 1914 -77 1750 -45 
Q 1587 -13 1433 57 
Q 1280 128 1139 237 
Q 998 346 896 499 
L 883 499 
L 883 -1843 
L 461 -1843 
L 461 2995 
z
" transform="scale(0.015625)"/>
      <path id="Avenir-Book-6a" d="M 1075 4147 
Q 1075 4013 979 3926 
Q 883 3840 768 3840 
Q 653 3840 557 3926 
Q 461 4013 461 4147 
Q 461 4282 557 4368 
Q 653 4454 768 4454 
Q 883 4454 979 4368 
Q 1075 4282 1075 4147 
z
M -141 -1107 
L -122 -1114 
Q -70 -1126 -9 -1139 
Q 51 -1152 102 -1152 
Q 256 -1152 349 -1094 
Q 442 -1037 486 -944 
Q 531 -851 544 -742 
Q 557 -634 557 -525 
L 557 2995 
L 979 2995 
L 979 -595 
Q 979 -659 972 -816 
Q 966 -973 892 -1133 
Q 819 -1293 643 -1414 
Q 467 -1536 134 -1536 
Q -45 -1536 -198 -1472 
L -141 -1107 
z
" transform="scale(0.015625)"/>
     </defs>
     <use xlink:href="#Avenir-Book-70"/>
     <use xlink:href="#Avenir-Book-72" x="61.099991"/>
     <use xlink:href="#Avenir-Book-65" x="92.549988"/>
     <use xlink:href="#Avenir-Book-64" x="148.149979"/>
     <use xlink:href="#Avenir-Book-69" x="209.249969"/>
     <use xlink:href="#Avenir-Book-6b" x="233.249954"/>
     <use xlink:href="#Avenir-Book-73" x="281.449951"/>
     <use xlink:href="#Avenir-Book-6a" x="324.049942"/>
     <use xlink:href="#Avenir-Book-6f" x="348.049927"/>
     <use xlink:href="#Avenir-Book-6e" x="407.349915"/>
    </g>
   </g>
  </g>
 </g>
 <defs>
  <clipPath id="pe67aee69ce">
   <rect x="7.2" y="7.2" width="446.4" height="443.52"/>
  </clipPath>
 </defs>
</svg>
