<svg width="108" height="109" xmlns="http://www.w3.org/2000/svg" xmlns:xlink="http://www.w3.org/1999/xlink" overflow="hidden"><defs><clipPath id="clip0"><rect x="1132" y="572" width="108" height="109"/></clipPath><clipPath id="clip1"><rect x="1132" y="573" width="108" height="108"/></clipPath><clipPath id="clip2"><rect x="1132" y="573" width="108" height="108"/></clipPath><clipPath id="clip3"><rect x="1132" y="573" width="108" height="108"/></clipPath><clipPath id="clip4"><rect x="1132" y="573" width="108" height="108"/></clipPath><clipPath id="clip5"><rect x="1132" y="573" width="108" height="108"/></clipPath><clipPath id="clip6"><rect x="1132" y="573" width="108" height="108"/></clipPath><clipPath id="clip7"><rect x="1132" y="573" width="108" height="108"/></clipPath><clipPath id="clip8"><rect x="1132" y="573" width="108" height="108"/></clipPath><clipPath id="clip9"><rect x="1132" y="573" width="108" height="108"/></clipPath><clipPath id="clip10"><rect x="1132" y="573" width="108" height="108"/></clipPath><clipPath id="clip11"><rect x="1132" y="573" width="108" height="108"/></clipPath><clipPath id="clip12"><rect x="1132" y="573" width="108" height="108"/></clipPath><clipPath id="clip13"><rect x="1132" y="573" width="108" height="108"/></clipPath><clipPath id="clip14"><rect x="1132" y="573" width="108" height="108"/></clipPath><clipPath id="clip15"><rect x="1132" y="573" width="108" height="108"/></clipPath><clipPath id="clip16"><rect x="1132" y="573" width="108" height="108"/></clipPath><clipPath id="clip17"><rect x="1132" y="573" width="108" height="108"/></clipPath><clipPath id="clip18"><rect x="1132" y="573" width="108" height="108"/></clipPath><clipPath id="clip19"><rect x="1132" y="573" width="108" height="108"/></clipPath><clipPath id="clip20"><rect x="1132" y="573" width="108" height="108"/></clipPath><clipPath id="clip21"><rect x="1132" y="573" width="108" height="108"/></clipPath><clipPath id="clip22"><rect x="1132" y="573" width="108" height="108"/></clipPath><clipPath id="clip23"><rect x="1132" y="573" width="108" height="108"/></clipPath><clipPath id="clip24"><rect x="1132" y="573" width="108" height="108"/></clipPath><clipPath id="clip25"><rect x="1132" y="573" width="108" height="108"/></clipPath><clipPath id="clip26"><rect x="1132" y="573" width="108" height="108"/></clipPath><clipPath id="clip27"><rect x="1132" y="573" width="108" height="108"/></clipPath><clipPath id="clip28"><rect x="1132" y="573" width="108" height="108"/></clipPath><clipPath id="clip29"><rect x="1132" y="573" width="108" height="108"/></clipPath><clipPath id="clip30"><rect x="1132" y="573" width="108" height="108"/></clipPath><clipPath id="clip31"><rect x="1132" y="573" width="108" height="108"/></clipPath><clipPath id="clip32"><rect x="1132" y="573" width="108" height="108"/></clipPath><clipPath id="clip33"><rect x="1132" y="573" width="108" height="108"/></clipPath></defs><g clip-path="url(#clip0)" transform="translate(-1132 -572)"><g clip-path="url(#clip1)"><g clip-path="url(#clip2)"><g clip-path="url(#clip3)"><path d="M1132 627C1132 613.933 1136.6 602 1144.33 592.667 1154.2 580.667 1169.2 573 1186 573 1215.8 573 1240 597.2 1240 627 1240 656.8 1215.8 681 1186 681 1156.2 681 1132 656.8 1132 627M1132.8 627C1132.8 641.667 1138.73 655 1148.4 664.6 1158 674.267 1171.33 680.2 1186 680.2 1200.67 680.2 1214 674.267 1223.6 664.6 1233.27 655 1239.2 641.667 1239.2 627 1239.2 612.333 1233.27 599 1223.6 589.4 1214 579.733 1200.67 573.8 1186 573.8 1169.47 573.8 1154.73 581.333 1144.93 593.133 1137.33 602.333 1132.8 614.133 1132.8 627" fill="#000000" fill-rule="nonzero" fill-opacity="1"/></g><g clip-path="url(#clip4)"><path d="M1143.87 648.933C1143.87 648.2 1144.47 647.667 1145.13 647.667 1145.87 647.667 1146.4 648.267 1146.4 648.933 1146.4 649.667 1145.8 650.2 1145.13 650.2 1144.4 650.2 1143.87 649.6 1143.87 648.933" fill="#000000" fill-rule="nonzero" fill-opacity="1"/></g><g clip-path="url(#clip5)"><path d="M1225.13 649.667C1225.13 648.933 1225.73 648.4 1226.4 648.4 1227.13 648.4 1227.67 649 1227.67 649.667 1227.67 650.4 1227.07 650.933 1226.4 650.933 1225.73 650.933 1225.13 650.4 1225.13 649.667" fill="#000000" fill-rule="nonzero" fill-opacity="1"/></g><g clip-path="url(#clip6)"><path d="M1222.93 611.467C1220.93 606.733 1218 602.4 1214.33 598.733 1210.67 595.067 1206.4 592.2 1201.6 590.133 1196.67 588.067 1191.4 587 1186.07 587 1180.67 587 1175.4 588.067 1170.47 590.133 1165.73 592.133 1161.4 595.067 1157.73 598.733 1154.07 602.4 1151.2 606.667 1149.2 611.467 1147.13 616.4 1146.07 621.6 1146.07 627 1146.07 632.4 1147.13 637.667 1149.2 642.533 1151.2 647.267 1154.07 651.6 1157.73 655.267 1161.4 658.933 1165.67 661.8 1170.47 663.867 1171.93 664.467 1173.47 665.067 1175 665.467 1175 665.467 1175 665.467 1175.07 665.467 1175.87 665.733 1176.6 665.933 1177.4 666.067 1180.2 666.667 1183.07 667 1186 667 1187.8 667 1189.53 666.867 1191.27 666.667L1191.27 666.667C1192.27 666.6 1193 666.467 1193.47 666.333 1196.2 665.8 1198.93 665 1201.53 663.867 1206.27 661.867 1210.6 659 1214.27 655.267L1214 655 1214.27 655.267C1217.93 651.6 1220.8 647.333 1222.87 642.533 1224.93 637.6 1226 632.4 1226 627 1226.07 621.667 1225 616.4 1222.93 611.467M1161.27 657.4C1161.2 657.333 1161.13 657.2 1161.13 657.067 1161.13 657 1161.2 656.933 1161.2 656.867 1161.4 656.533 1161.67 656.2 1161.87 655.867 1162.27 656.733 1163.27 658.467 1165.4 660.333 1164 659.467 1162.6 658.467 1161.27 657.4M1160.93 633.667C1161.73 634.467 1161.87 635.133 1161.93 635.667 1161.93 635.867 1161.93 636 1161.87 636.133 1161.87 636.2 1161.87 636.2 1161.87 636.267 1161.87 636.267 1161.87 636.267 1161.87 636.267 1161.8 636.333 1161.53 636.933 1160.6 636.933 1160.47 636.933 1160.27 636.933 1160.13 636.867 1158.6 636.533 1157.07 635.933 1155.8 635.8 1155.8 635.8 1155.73 635.8 1155.73 635.8L1158.8 631.6C1159.67 632.467 1160.53 633.267 1160.93 633.667M1154.6 626.667 1174.47 606.6 1162.53 634.6C1162.33 634.133 1162.07 633.6 1161.53 633.133 1160.4 632 1155.8 627.8 1154.6 626.667M1159.93 637.6C1160.13 637.667 1160.4 637.667 1160.6 637.667 1161.33 637.667 1161.8 637.4 1162.13 637.133 1162.47 636.867 1162.6 636.6 1162.6 636.533 1162.6 636.533 1162.6 636.533 1162.6 636.533 1162.6 636.533 1162.6 636.533 1162.6 636.533L1162.6 636.467 1174.8 607.867C1174.8 608.067 1174.87 608.4 1174.93 608.6 1175.13 611.8 1175.87 614.067 1176.67 615.8 1177.13 616.8 1177.6 617.533 1177.93 618.133 1178.13 618.4 1178.27 618.6 1178.4 618.8 1178.47 618.867 1178.47 618.867 1178.53 618.933L1175.67 628.8C1175.6 628.933 1175.67 629.133 1175.8 629.2L1176.47 629.733C1176.47 629.733 1176.53 629.8 1176.53 629.933 1176.47 630.067 1173.33 641.667 1173.33 641.667L1163.33 653.067C1162.6 652.467 1160.47 650.467 1157.6 646 1155.13 642.133 1154.4 639.733 1154.4 638.333 1154.4 637.667 1154.6 637.2 1154.8 636.933 1154.8 636.933 1154.8 636.933 1154.8 636.933 1154.8 636.933 1154.8 636.933 1154.87 636.867 1155.07 636.6 1155.4 636.533 1155.6 636.533 1155.6 636.533 1155.67 636.533 1155.67 636.533 1156.73 636.667 1158.27 637.267 1159.93 637.6M1181 595.533C1180.93 595.333 1180.73 595.2 1180.53 595.267 1180.73 595.133 1180.87 594.933 1181.07 594.8L1182.8 594.6C1183 594.6 1183.2 594.4 1183.13 594.133 1183.13 593.933 1182.93 593.733 1182.67 593.8L1182.4 593.867C1182.93 593.533 1183.47 593.267 1183.93 593.133 1184.27 593 1184.53 592.933 1184.67 592.867 1184.87 592.8 1184.93 592.8 1184.93 592.8 1185.13 592.733 1185.27 592.533 1185.2 592.333 1185.13 592.133 1184.93 592 1184.73 592.067 1184.73 592.067 1184.07 592.267 1183.2 592.667 1183.33 592.467 1183.27 592.267 1183.13 592.133 1182.93 592 1182.73 592.067 1182.6 592.2L1181.67 593.533C1181.6 593.6 1181.53 593.667 1181.4 593.667 1181.27 593.733 1181.13 593.867 1181 593.933L1181.07 593.733C1181.2 593.533 1181.07 593.267 1180.87 593.2 1180.67 593.067 1180.4 593.2 1180.33 593.4L1179.33 595.267C1179.07 595.467 1178.87 595.733 1178.67 595.933 1178.67 594.867 1179 593.067 1180.13 592.133 1181.27 591.267 1182.27 591.067 1183.07 591.067 1183.53 591.067 1183.93 591.133 1184.33 591.2 1184.53 591.2 1185.13 591.4 1185.67 591.533 1186.2 591.667 1186.67 591.8 1186.67 591.8L1186.8 591.8C1187.4 591.8 1187.67 591.933 1187.87 592.133 1188 592.267 1188.07 592.533 1188.07 592.733 1188.07 592.933 1188 593.133 1187.87 593.333 1187.8 593.4 1187.8 593.467 1187.73 593.467L1184.73 593.8C1184.6 593.8 1184.53 593.867 1184.47 593.933L1182.6 596.4 1181.67 596.4 1181.6 596.4C1181.53 596.4 1181.4 596.467 1181.2 596.6 1181 596.733 1180.8 597.067 1180.8 597.467 1180.8 598.2 1181.07 598.733 1181.33 599 1181.33 599 1181.4 599.067 1181.4 599.067L1180.2 600.333C1180 600.267 1179.67 600.2 1179.4 600 1179 599.733 1178.67 599.333 1178.6 598.667 1178.53 598.267 1178.53 597.933 1178.53 597.667 1178.53 597.4 1178.53 597.2 1178.6 597.067 1178.6 597.067 1178.6 597.067 1178.6 597.067 1178.6 597.067 1178.8 596.867 1179.07 596.6L1180.73 596C1180.93 596 1181.07 595.733 1181 595.533M1187.13 598.6C1187.13 598.6 1187.13 598.733 1187 598.8 1186.87 598.867 1186.8 598.933 1186.8 599.067 1186.8 599.2 1186.8 599.333 1186.87 599.4 1186.87 599.4 1186.87 599.467 1186.87 599.533 1186.87 599.6 1186.8 599.667 1186.8 599.667 1186.73 599.733 1186.73 599.867 1186.73 600 1186.73 600.067 1186.8 600.2 1186.8 600.333 1186.8 600.4 1186.73 600.667 1186.6 600.733 1186.47 600.8 1186.2 600.867 1185.87 600.867L1185 600.867C1184.8 600.867 1184.67 601 1184.6 601.2 1184.6 601.2 1184.6 601.333 1184.6 601.467 1184.6 601.667 1184.6 602 1184.8 602.333 1184.87 602.467 1184.93 602.6 1185.07 602.733 1185.07 602.733 1185.07 602.733 1185.07 602.733L1186.47 604.333 1182.73 604.6 1180.2 602.6C1180.33 602.533 1180.4 602.533 1180.4 602.533 1180.53 602.467 1180.6 602.333 1180.6 602.2L1180.6 601.067 1182.2 599.467C1182.27 599.333 1182.33 599.2 1182.33 599.067 1182.27 598.933 1182.2 598.8 1182.07 598.8 1182 598.733 1181.53 598.6 1181.47 597.6 1181.47 597.467 1181.53 597.4 1181.53 597.4 1181.53 597.4 1181.53 597.4 1181.6 597.4L1182.67 597.4C1182.8 597.4 1182.93 597.333 1183 597.267 1183 597.267 1184.67 595.067 1184.8 594.867 1184.93 594.733 1185.07 594.733 1185.07 594.733L1187.33 594.467C1187.33 594.467 1187.47 594.467 1187.47 594.6 1187.47 594.8 1187.53 595.067 1187.53 595.333 1187.53 595.467 1187.47 595.467 1187.4 595.467 1187.13 595.467 1186.8 595.467 1186.47 595.467 1186.13 595.467 1185.73 595.6 1185.53 595.867 1185.33 596 1185.33 596.333 1185.53 596.467 1185.6 596.533 1185.8 596.6 1186.07 596.667 1186.33 596.733 1186.67 596.867 1186.8 596.8 1187 596.733 1187.07 596.533 1187.07 596.4 1187.07 596.2 1187.2 596.067 1187.4 596.067 1187.47 596.067 1187.53 596.133 1187.53 596.2 1187.6 596.6 1187.67 597.133 1187.67 597.4 1187.67 597.533 1187.67 597.667 1187.67 597.8 1187.67 597.933 1187.53 597.933 1187.47 597.933 1187.33 597.933 1187.2 597.933 1187.2 597.933 1187.07 597.933 1187 598 1186.93 598.067 1186.87 598.133 1186.8 598.267 1186.8 598.333L1187.13 598.6ZM1182.47 605.267C1182.53 605.333 1182.6 605.333 1182.73 605.333L1187.4 605C1187.53 605 1187.67 604.867 1187.73 604.733 1187.8 604.6 1187.73 604.4 1187.67 604.333L1186.8 603.4C1187.27 603.533 1187.73 603.667 1188.07 603.8 1188.33 603.867 1188.8 604.267 1189.13 604.8 1189.53 605.267 1189.87 605.867 1190.07 606.333 1189.93 607.133 1189.67 608 1189.4 608.8L1187.4 610.333 1182.87 607.267C1182.67 606.933 1181.6 605.4 1180.6 604.4 1180.07 603.933 1179.33 603.667 1178.53 603.667 1178.4 603.667 1178.27 603.667 1178.13 603.667 1178.33 603.533 1178.53 603.467 1178.73 603.333 1179 603.2 1179.33 603 1179.53 602.933L1182.47 605.267ZM1178.53 604.533C1179.13 604.533 1179.67 604.733 1180 605.067 1180.53 605.6 1181.07 606.267 1181.53 606.867 1181.93 607.467 1182.27 607.867 1182.27 607.867 1182.27 607.933 1182.33 607.933 1182.4 608L1187.2 611.267C1187.33 611.333 1187.53 611.333 1187.67 611.267L1193.8 606.6C1193.8 606.6 1193.93 606.467 1194.13 606.333 1194.33 606.2 1194.53 606 1194.67 605.933 1195 605.733 1196.33 604.933 1197.2 604.867 1197.27 604.867 1197.33 604.867 1197.4 604.867 1197.8 604.867 1198.13 604.933 1198.27 605.067 1198.4 605.2 1198.47 605.267 1198.47 605.533 1198.47 606 1198.47 606.733 1198.47 606.733 1198.47 606.933 1198.6 607.067 1198.8 607.067 1198.93 607.067 1199.13 607.133 1199.13 607.333 1199.13 607.6 1198.93 607.667 1198.87 607.667 1198.73 607.667 1198.6 607.733 1198.53 607.733L1198.13 607.733 1198 607.733C1198 607.733 1197.47 607.867 1196.93 608 1196.67 608.067 1196.4 608.133 1196.13 608.2 1196 608.2 1195.93 608.267 1195.87 608.267 1195.8 608.267 1195.8 608.267 1195.8 608.267 1195.8 608.267 1195.8 608.267 1195.8 608.267 1195.47 608.267 1194.87 608.333 1194.87 608.333 1194.73 608.333 1194.67 608.4 1194.6 608.533 1194.6 608.533 1193.93 609.467 1193.07 610.667 1192.2 611.8 1191.2 613.133 1190.53 613.8 1189.87 614.467 1189.27 615 1188.87 615.333 1188.73 615.467 1188.67 615.533 1188.53 615.6 1188.47 615.667 1188.4 615.667 1188.27 615.667 1187.67 615.4 1186.4 614.933 1184.93 614.267 1182.8 613.333 1180.2 612.2 1178.27 611.133 1177.87 610.933 1177.2 610.533 1176.6 609.867 1176.53 609.8 1176.47 609.733 1176.4 609.667 1176.4 609.667 1176.33 609.6 1176.33 609.6 1176.27 609.533 1176.27 609.467 1176.2 609.467 1176.2 609.4 1176.13 609.4 1176.13 609.333 1176.13 609.267 1176.07 609.267 1176.07 609.2 1176.07 609.133 1176 609.133 1176 609.067 1176 609.067 1176 609 1176 609 1175.93 608.933 1175.87 608.8 1175.87 608.733 1175.87 608.733 1175.87 608.733 1175.87 608.667 1175.87 608.6 1175.8 608.533 1175.8 608.467 1175.8 608.467 1175.8 608.467 1175.8 608.467 1175.73 608.333 1175.73 608.267 1175.73 608.133 1175.73 608.067 1175.73 608.067 1175.73 608 1175.73 607.933 1175.73 607.933 1175.73 607.867 1175.73 607.8 1175.73 607.667 1175.73 607.6 1175.73 607.533 1175.73 607.467 1175.73 607.4 1175.73 607.333 1175.73 607.267 1175.73 607.267 1175.73 607.267 1175.73 607.267 1175.73 607.267 1175.73 607.133 1175.8 607 1175.8 606.867 1175.8 606.8 1175.87 606.733 1175.87 606.6 1175.87 606.6 1175.87 606.6 1175.87 606.6 1175.87 606.533 1175.93 606.467 1175.93 606.333 1175.93 606.333 1175.93 606.333 1175.93 606.267 1175.93 606.2 1176 606.133 1176.07 606.067 1176.07 606.067 1176.07 606 1176.07 606 1176.13 605.933 1176.2 605.8 1176.2 605.733 1176.53 604.933 1177.6 604.467 1178.53 604.533M1191.13 598.4C1191.13 598.2 1191.2 598.2 1191.2 598.2 1191.8 598.267 1192.13 598.533 1192.33 598.8 1192.47 598.933 1192.53 599.133 1192.6 599.267 1192.6 599.333 1192.67 599.4 1192.67 599.4 1192.67 599.4 1192.67 599.4 1192.67 599.4 1192.67 599.6 1192.87 599.733 1193.07 599.733L1200.93 599.733C1201.13 599.733 1201.33 599.6 1201.33 599.4 1201.33 599.333 1201.4 599.133 1201.67 598.867 1201.87 598.667 1202.2 598.467 1202.87 598.4 1202.93 598.4 1203 598.467 1203 598.533 1203 599.333 1203 601.067 1203 603.6 1203 605.667 1203.53 607.267 1204 608.933 1204.53 610.6 1205 612.2 1205 614.267 1205 615.4 1204.8 616.4 1204.4 617.4 1204.07 617.2 1203.73 617.067 1203.6 617 1203.53 617 1203.47 617 1203.4 617 1203.07 617 1202.87 617.133 1202.67 617.267 1202.47 617.4 1202.33 617.533 1202.2 617.8 1202.2 617.867 1202.13 618 1202.13 618.067 1202.13 618.267 1202.2 618.467 1202.27 618.533 1202.2 618.6 1202.07 618.667 1202 618.8 1201.87 618.933 1201.73 619.067 1201.6 619.2 1201.47 619.333 1201.4 619.467 1201.33 619.667 1201.27 619.8 1201.27 619.933 1201.27 620.067 1201.27 620.333 1201.33 620.533 1201.47 620.733 1200.27 621.467 1198.73 621.867 1196.87 621.867 1194.2 621.867 1192.27 620.933 1191 619.6 1190.07 618.6 1189.47 617.333 1189.2 616.067 1189.6 615.733 1190.27 615.133 1191.2 614.267 1191.33 614.133 1191.53 613.933 1191.67 613.733 1191.93 614.733 1192.53 615.6 1193.27 616.2 1194.27 617.067 1195.67 617.533 1197.07 617.6 1197.07 617.6 1197.13 617.6 1197.13 617.6 1197.13 617.6 1197.13 617.6 1197.13 617.6 1197.13 617.6 1197.2 617.6 1197.2 617.6 1200.2 617.6 1202.47 614.933 1202.47 611.933 1202.47 610.6 1202.13 609.667 1201.87 608.267 1201.6 606.8 1201.27 604.867 1201.27 601.333 1201.27 601.2 1201.2 601.133 1201.13 601.067 1201.07 601 1200.93 600.933 1200.87 600.933L1193.13 600.933C1193 600.933 1192.93 601 1192.87 601.067 1192.8 601.133 1192.73 601.267 1192.73 601.333 1192.73 603.867 1192.6 605.467 1192.33 606.667L1190.53 608.067C1190.67 607.533 1190.8 607 1190.93 606.467 1190.93 606.467 1190.93 606.4 1190.93 606.4 1191.07 605.733 1191.13 605 1191.13 604.267 1191.13 601.467 1191.13 599.4 1191.13 598.4M1202.27 620.6C1202.07 620.267 1202 620.067 1202 619.933 1202 619.867 1202 619.867 1202 619.8 1202 619.733 1202.27 619.467 1202.47 619.267 1202.67 619.067 1202.87 618.933 1202.87 618.933 1203 618.867 1203.07 618.667 1203.07 618.6 1203.07 618.467 1203 618.4 1203 618.333 1203 618.267 1202.93 618.2 1202.93 618.2 1202.93 618.133 1202.87 618 1203 617.867 1203.13 617.733 1203.33 617.8 1203.4 617.8 1203.53 617.867 1203.8 618 1204 618.133 1204.33 618.333 1204.73 618.6 1204.8 618.867 1204.93 619.067 1205.07 619.4 1205 619.6 1205 619.733 1204.93 619.867 1204.87 619.933 1204.73 620.067 1203.53 621.067 1203.47 621.133 1203.33 621.2 1202.87 621.467 1202.4 621.6 1202.27 621.667 1202.13 621.667 1202.07 621.733 1201.93 621.8 1201.87 621.667 1201.87 621.667 1201.87 621.667 1201.87 621.6 1201.87 621.533 1201.93 621.467 1202 621.4 1202.07 621.333 1202.13 621.267 1202.27 621.133 1202.27 620.933 1202.4 620.8 1202.33 620.667 1202.27 620.6M1203.47 648.467C1203.47 648.467 1203.47 648.6 1203.4 648.667 1203.33 648.733 1200.47 650.333 1200.47 650.333L1200.13 622.133C1200.47 622 1200.73 621.933 1201.07 621.8L1203.47 648.467ZM1190.53 661.533C1190.53 661.533 1191.6 662.867 1191.6 662.933 1191.67 663 1191.6 663.067 1191.6 663.067 1190 664.333 1187.47 665.267 1184.53 665.6 1185 663.467 1186.8 655.133 1188.07 646.6 1189.4 637.8 1190 629.467 1190.13 627.733 1190.13 627.733 1191.2 627.667 1191.4 627.667 1191.6 627.667 1191.6 627.733 1191.6 627.867 1191.6 628 1190.47 661.267 1190.47 661.267 1190.47 661.333 1190.47 661.467 1190.53 661.533M1176.53 628.4C1176.53 628.4 1179.13 619.4 1179.2 619.267 1179.27 619.133 1179.33 619.133 1179.33 619.133 1179.33 619.133 1181.27 618.6 1181.53 618.467 1181.87 618.4 1182.33 618.333 1182.33 618.333L1188.93 617.933C1189.27 618.733 1189.73 619.4 1190.33 620.067 1190.87 620.6 1191.53 621.133 1192.27 621.533 1192.27 621.533 1192.27 626.533 1192.27 626.6 1192.27 626.667 1192.2 626.8 1192 626.8 1191.8 626.8 1185.4 627.267 1183.8 627.4 1183.6 627.4 1183.33 627.467 1183.07 627.533 1182.8 627.6 1177.27 629.133 1177.27 629.133 1177.27 629.133 1177.07 629.133 1177 629.067 1176.93 629 1176.87 628.933 1176.67 628.8 1176.47 628.667 1176.53 628.4 1176.53 628.4M1179 618.267C1178.33 617.4 1176.53 614.8 1175.87 610.067 1175.93 610.133 1175.93 610.133 1176 610.2 1176.67 610.933 1177.4 611.333 1177.87 611.6 1181.87 613.733 1188.33 616.267 1188.33 616.333 1188.33 616.333 1188.33 616.333 1188.33 616.333 1188.4 616.6 1188.47 616.867 1188.53 617.133L1182.47 617.533C1182.47 617.533 1181.73 617.533 1181.27 617.733 1180.67 617.933 1179.2 618.333 1179.13 618.333 1179.07 618.333 1179 618.333 1179 618.267M1192.4 627.533 1192.67 627.467C1192.87 627.4 1193 627.267 1193 627.067L1193 621.867C1194.07 622.267 1195.33 622.533 1196.73 622.533 1197.67 622.533 1198.47 622.4 1199.27 622.267L1199.67 654.533C1199.67 654.533 1199.67 654.533 1199.67 654.6 1199.67 654.933 1199.6 656.067 1198.67 656.733 1197.47 657.6 1194.87 658.933 1191.33 659.067L1192.4 627.533ZM1192.27 612.867C1193.2 611.733 1194.27 610.333 1194.8 609.467L1194.8 616.2C1194.4 616 1194 615.8 1193.67 615.533 1193 614.867 1192.47 614 1192.27 612.867M1195.6 616.467 1195.6 609C1195.67 609 1195.73 609 1195.8 609 1195.93 609 1196.13 608.933 1196.4 608.933 1196.47 608.933 1196.53 608.867 1196.67 608.867L1196.67 616.733C1196.33 616.667 1195.93 616.6 1195.6 616.467M1197.47 616.667 1197.47 608.6C1197.87 608.533 1198.13 608.4 1198.27 608.4L1198.4 608.4 1198.4 616.467C1198.13 616.6 1197.8 616.667 1197.47 616.667M1199.93 606.8C1199.87 606.667 1199.8 606.467 1199.53 606.333 1199.47 606.333 1199.4 606.267 1199.33 606.267 1199.33 606 1199.33 605.667 1199.33 605.4 1199.33 605.2 1199.33 605 1199.27 604.867L1199.27 601.667 1200.53 601.667C1200.53 605 1200.87 606.933 1201.13 608.4 1201.47 609.867 1201.73 610.733 1201.73 611.933 1201.73 613.2 1201.27 614.4 1200.4 615.333 1200.07 615.667 1199.67 616 1199.27 616.267L1199.27 608.333C1199.27 608.333 1199.33 608.333 1199.33 608.333 1199.4 608.333 1199.4 608.333 1199.4 608.333 1199.4 608.333 1199.47 608.333 1199.47 608.333 1199.6 608.333 1199.73 608.267 1199.8 608.2 1200 608 1200 607.867 1200 607.733 1200 607.6 1200.07 607.4 1200.07 607.267 1200 607.133 1200 606.933 1199.93 606.8M1198.4 601.667 1198.4 604.133C1198.13 604 1197.8 604 1197.47 604L1197.47 601.667 1198.4 601.667ZM1196.67 601.667 1196.67 604.067C1196.33 604.133 1196 604.267 1195.67 604.4L1195.67 601.667 1196.67 601.667ZM1194.8 601.667 1194.8 604.8C1194.53 604.933 1194.33 605.067 1194.2 605.133 1193.87 605.333 1193.33 605.8 1193.27 605.867 1193.4 604.8 1193.53 603.467 1193.53 601.6L1194.8 601.6ZM1163.07 654.6C1163.2 654.467 1174 642.067 1174 642.067 1174.07 642 1174.07 642 1174.07 641.933 1174.07 641.933 1177.27 630.133 1177.27 630 1177.27 629.933 1177.4 629.867 1177.4 629.867 1177.4 629.867 1183.07 628.333 1183.27 628.267 1183.47 628.2 1183.8 628.2 1183.8 628.2L1186.93 628C1186.87 628.4 1186.8 628.933 1186.73 629.733 1186.2 633.733 1184.53 642.333 1180.6 647.067 1174.67 654.067 1166.4 654.733 1163.33 654.733 1163.27 654.733 1163.2 654.733 1163.13 654.733 1163 654.733 1162.93 654.733 1163.07 654.6M1162.87 655.533C1163 655.533 1163.2 655.533 1163.33 655.533 1166.53 655.533 1175 654.8 1181.2 647.533 1186.27 641.467 1187.6 629.933 1187.8 627.933L1189.4 627.8C1189.33 628.6 1189.2 630.6 1188.93 633.2 1188.6 636.733 1188.07 641.533 1187.33 646.4 1186.6 651.333 1185.67 656.2 1184.93 659.8 1184.4 662.467 1184 664.533 1183.8 665.4 1183.8 665.467 1183.67 665.6 1183.47 665.6 1183 665.6 1182.6 665.667 1182.13 665.667 1180.67 665.667 1179.13 665.533 1177.67 665.267 1176.87 665.067 1176.13 664.933 1175.33 664.667 1169.8 662.933 1166.6 660.467 1164.73 658.467 1163.8 657.467 1163.27 656.6 1162.93 655.933 1162.87 655.8 1162.8 655.733 1162.8 655.667 1162.73 655.6 1162.8 655.533 1162.87 655.533M1185.93 666.2C1188.2 665.8 1190.27 665.067 1191.73 664L1193 664.333C1193.07 664.333 1193.07 664.333 1193.13 664.333 1193.13 664.333 1194.33 664.267 1194.4 664.267 1194.73 664.267 1194.87 664.467 1194.87 664.533 1194.87 664.6 1194.87 664.667 1194.87 664.667 1194.87 664.667 1194.87 664.867 1194.73 665 1194.6 665.133 1193.73 665.4 1193.4 665.467 1191 665.933 1188.53 666.133 1186.07 666.133 1186.07 666.2 1186 666.2 1185.93 666.2M1222.2 642.267C1220.2 646.933 1217.4 651.133 1213.8 654.733 1210.2 658.333 1206 661.133 1201.33 663.133 1199.47 663.933 1197.6 664.533 1195.73 665L1195.67 664.2C1195.67 663.733 1195.13 663.467 1194.87 663.467L1193.2 663.467C1193.2 663.467 1192.67 663.333 1192.6 663.333 1192.53 663.333 1192.53 663.267 1192.53 663.267 1192.67 663.133 1192.67 662.933 1192.53 662.733L1191.27 661.067 1191.33 659.867C1195.13 659.8 1197.87 658.333 1199.2 657.4 1200.47 656.467 1200.53 655 1200.53 654.6 1200.53 654.533 1200.53 654.467 1200.53 654.467L1200.47 651.133C1200.47 651.133 1200.47 651.133 1200.53 651.133L1204.13 649.133C1204.27 649.067 1204.33 648.933 1204.33 648.733L1202 622.533C1202.13 622.467 1202.47 622.4 1202.8 622.267 1203.27 622.067 1203.73 621.933 1204 621.733 1204.27 621.533 1205.33 620.667 1205.6 620.4 1205.8 620.133 1205.93 619.867 1205.93 619.6 1205.93 619.2 1205.73 618.8 1205.6 618.467 1205.47 618.2 1205.27 618 1205 617.8 1205.47 616.733 1205.73 615.467 1205.73 614.2 1205.73 612 1205.2 610.267 1204.73 608.667 1204.2 607 1203.73 605.467 1203.73 603.6 1203.73 600.067 1203.8 598 1203.8 598 1203.8 597.867 1203.73 597.8 1203.67 597.733 1203.6 597.667 1203.47 597.6 1203.4 597.6 1202.2 597.6 1201.47 598 1201.07 598.4 1200.87 598.6 1200.73 598.8 1200.67 599L1193.4 599C1193.33 598.8 1193.2 598.6 1193 598.333 1192.6 597.867 1191.87 597.4 1190.73 597.4 1190.6 597.4 1190.53 597.467 1190.47 597.533 1190.4 597.6 1190.33 597.733 1190.33 597.8 1190.33 597.8 1190.33 600.467 1190.33 604.2 1190.33 604.467 1190.33 604.8 1190.27 605.067 1190.13 604.8 1189.93 604.6 1189.8 604.4 1189.33 603.8 1188.87 603.333 1188.27 603.133 1187.73 603 1186.93 602.733 1186.07 602.467 1185.73 602.333 1185.6 602.2 1185.53 602.067 1185.47 602 1185.47 601.867 1185.4 601.733L1185.87 601.733C1186.27 601.733 1186.6 601.667 1186.87 601.533 1187.13 601.4 1187.4 601.2 1187.53 600.867 1187.6 600.733 1187.6 600.533 1187.6 600.4 1187.6 600.267 1187.6 600.133 1187.53 600L1187.73 599.667C1187.8 599.533 1187.8 599.4 1187.73 599.333 1187.8 599.267 1187.87 599.133 1187.87 599L1187.87 598.6C1187.87 598.6 1187.93 598.6 1187.93 598.6 1188.07 598.6 1188.2 598.533 1188.33 598.467 1188.4 598.467 1188.47 598.4 1188.53 598.333 1188.6 598.267 1188.67 598.133 1188.67 598 1188.67 597.867 1188.67 597.667 1188.6 597.2 1188.53 596.2 1188.33 594.533 1188.33 594 1188.47 593.8 1188.8 593.333 1188.8 592.733 1188.8 592.333 1188.67 591.933 1188.33 591.533 1188 591.2 1187.47 591 1186.8 591 1186.47 590.933 1184.87 590.467 1184.4 590.4 1184.07 590.333 1183.6 590.267 1183.07 590.267 1182.13 590.267 1180.93 590.533 1179.67 591.533 1178 592.867 1177.87 595.2 1177.87 596.2 1177.87 596.4 1177.87 596.533 1177.87 596.667 1177.8 596.867 1177.73 597.2 1177.73 597.733 1177.73 598.067 1177.73 598.4 1177.8 598.8 1177.93 599.867 1178.6 600.467 1179.2 600.8 1179.47 600.933 1179.73 601.067 1179.93 601.133L1179.93 601.867C1179.6 602 1177.6 602.933 1175.67 604.2 1175.6 604.267 1175.47 604.333 1175.33 604.467 1175.33 604.467 1175.33 604.467 1175.33 604.467L1153.73 626.4C1153.67 626.467 1153.6 626.6 1153.6 626.667 1153.6 626.8 1153.67 626.867 1153.73 626.933 1153.73 626.933 1155.2 628.267 1156.87 629.8 1157.27 630.2 1157.67 630.533 1158.13 630.933L1154.13 636.4C1153.8 636.8 1153.6 637.467 1153.6 638.267 1153.6 639.933 1154.4 642.467 1156.93 646.4 1159.8 650.867 1162 652.933 1162.8 653.6L1161.73 654.8C1161.67 654.867 1161.33 655.2 1161 655.667 1160.8 655.933 1160.67 656.2 1160.47 656.467 1160.4 656.533 1160.4 656.6 1160.4 656.667 1159.67 656.067 1159 655.4 1158.33 654.733 1154.73 651.133 1151.93 646.933 1149.93 642.267 1147.87 637.467 1146.87 632.333 1146.87 627 1146.87 621.733 1147.93 616.6 1149.93 611.733 1151.93 607.067 1154.73 602.867 1158.33 599.267 1161.93 595.667 1166.13 592.867 1170.8 590.867 1175.6 588.8 1180.73 587.8 1186.07 587.8 1191.33 587.8 1196.47 588.8 1201.33 590.867 1206 592.867 1210.2 595.667 1213.8 599.267 1217.4 602.867 1220.2 607.067 1222.2 611.733 1224.27 616.533 1225.27 621.667 1225.27 627 1225.27 632.333 1224.2 637.467 1222.2 642.267" fill="#000000" fill-rule="nonzero" fill-opacity="1"/></g><g clip-path="url(#clip7)"><path d="M1140.27 630.4C1140.73 630.333 1141.13 630.333 1141.47 630.4 1141.8 630.467 1142.07 630.6 1142.33 630.8 1142.53 631 1142.73 631.267 1142.87 631.6 1143 631.933 1143.07 632.333 1143.13 632.8 1143.2 633.2 1143.2 633.6 1143.13 633.933 1143.07 634.267 1143 634.6 1142.8 634.867 1142.67 635.133 1142.4 635.333 1142.13 635.533 1141.87 635.733 1141.13 635.867 1141.13 635.867 1141.07 635.867 1140.93 635.867 1140.87 635.933L1137.4 636.333C1137.4 636.333 1137.33 636.4 1137.33 636.467L1137.33 637C1137.33 637.067 1137.27 637.133 1137.2 637.133L1137.07 637.133C1137 637.133 1136.93 637.067 1136.93 637L1136.6 634.6C1136.6 634.533 1136.67 634.467 1136.73 634.467L1136.87 634.467C1136.93 634.467 1137 634.533 1137 634.533L1137.13 635C1137.13 635.067 1137.2 635.133 1137.27 635.067L1141.2 634.533C1141.67 634.467 1142.07 634.267 1142.27 633.933 1142.53 633.6 1142.6 633.133 1142.53 632.6 1142.47 632 1142.27 631.6 1141.93 631.4 1141.6 631.2 1140.6 631.2 1140.6 631.2 1140.53 631.2 1140.4 631.2 1140.33 631.2L1136.73 631.667C1136.67 631.667 1136.6 631.733 1136.6 631.8L1136.6 632.333C1136.6 632.4 1136.53 632.467 1136.47 632.467L1136.33 632.467C1136.27 632.467 1136.2 632.4 1136.2 632.333L1136 630.333C1136 630.267 1136.07 630.2 1136.13 630.2L1136.27 630.2C1136.33 630.2 1136.4 630.267 1136.4 630.267L1136.53 630.733C1136.53 630.8 1136.6 630.867 1136.67 630.8L1140.27 630.4Z" fill="#000000" fill-rule="nonzero" fill-opacity="1"/></g><g clip-path="url(#clip8)"><path d="M1136 624.867C1136 624.8 1136.07 624.733 1136.13 624.667L1141.13 621.667 1136.93 621.333C1136.87 621.333 1136.8 621.4 1136.8 621.467L1136.67 622C1136.67 622.067 1136.6 622.133 1136.53 622.133L1136.4 622.133C1136.33 622.133 1136.27 622.067 1136.27 622L1136.4 619.933C1136.4 619.867 1136.47 619.8 1136.53 619.8L1136.67 619.8C1136.73 619.8 1136.8 619.867 1136.8 619.933L1136.87 620.467C1136.87 620.533 1136.93 620.6 1137 620.6L1142.93 621.067C1143 621.067 1143.07 621.133 1143.07 621.2L1143 621.8C1143 621.867 1142.93 621.933 1142.87 622L1137.07 625.4 1142 625.667C1142.07 625.667 1142.13 625.6 1142.13 625.533L1142.27 625.067C1142.27 625 1142.33 624.933 1142.4 624.933L1142.53 624.933C1142.6 624.933 1142.67 625 1142.67 625.067L1142.53 627.133C1142.53 627.2 1142.47 627.267 1142.4 627.267L1142.27 627.267C1142.2 627.267 1142.13 627.2 1142.13 627.133L1142.07 626.6C1142.07 626.533 1142 626.467 1141.93 626.467L1136.6 626.067C1136.53 626.067 1136.47 626.133 1136.47 626.2L1136.33 626.733C1136.33 626.8 1136.27 626.867 1136.2 626.867L1136.07 626.867C1136 626.867 1135.93 626.8 1135.93 626.733L1136 624.867Z" fill="#000000" fill-rule="nonzero" fill-opacity="1"/></g><g clip-path="url(#clip9)"><path d="M1138.07 613.733C1138.13 613.733 1138.2 613.8 1138.2 613.867L1138.2 614.4C1138.2 614.467 1138.27 614.533 1138.33 614.533L1143.53 615.8C1143.6 615.8 1143.67 615.8 1143.73 615.733L1143.93 615.267C1143.93 615.2 1144.07 615.2 1144.13 615.2L1144.27 615.267C1144.33 615.267 1144.4 615.333 1144.33 615.4L1143.73 617.733C1143.73 617.8 1143.67 617.867 1143.6 617.8L1143.47 617.733C1143.4 617.733 1143.33 617.667 1143.33 617.6L1143.33 617.067C1143.33 617 1143.27 616.933 1143.2 616.933L1138 615.667C1137.93 615.667 1137.87 615.667 1137.8 615.733L1137.6 616.2C1137.6 616.267 1137.47 616.267 1137.4 616.267L1137.27 616.2C1137.2 616.2 1137.13 616.133 1137.2 616.067L1137.8 613.733C1137.8 613.667 1137.87 613.6 1137.93 613.667L1138.07 613.733Z" fill="#000000" fill-rule="nonzero" fill-opacity="1"/></g><g clip-path="url(#clip10)"><path d="M1146.2 609.8C1146.27 609.867 1146.27 609.933 1146.27 610L1146 610.667C1146 610.733 1145.87 610.8 1145.8 610.8L1139.47 610.333C1139.4 610.333 1139.33 610.4 1139.27 610.4L1139.07 610.733C1139 610.8 1138.93 610.8 1138.87 610.8L1138.73 610.733C1138.67 610.733 1138.67 610.667 1138.67 610.6L1139.53 608.6C1139.53 608.533 1139.6 608.533 1139.67 608.533L1139.8 608.6C1139.87 608.6 1139.93 608.667 1139.87 608.733L1139.8 609.133C1139.8 609.2 1139.8 609.267 1139.87 609.267L1144.93 609.667 1141.33 606.067C1141.27 606 1141.2 606 1141.2 606.067L1140.93 606.467C1140.87 606.533 1140.8 606.533 1140.73 606.533L1140.6 606.467C1140.53 606.467 1140.53 606.4 1140.53 606.333L1141.33 604.533C1141.33 604.467 1141.4 604.467 1141.47 604.467L1141.6 604.533C1141.67 604.533 1141.73 604.667 1141.67 604.667L1141.6 605.133C1141.6 605.2 1141.6 605.267 1141.67 605.333L1146.2 609.8Z" fill="#000000" fill-rule="nonzero" fill-opacity="1"/></g><g clip-path="url(#clip11)"><path d="M1158.87 592.533C1159 592.467 1159.2 592.467 1159.33 592.333 1159.47 592.267 1159.6 592.2 1159.73 592.133 1160.07 591.867 1160.33 591.6 1160.4 591.267 1160.47 590.933 1160.4 590.667 1160.2 590.4 1160.07 590.2 1159.93 590.133 1159.73 590.067 1159.53 590 1159.4 590 1159.2 589.933 1159 589.933 1158.8 589.933 1158.6 590 1158.4 590.067 1158.2 590.067 1158 590.133 1157.67 590.2 1157.4 590.2 1157.2 590.267 1156.93 590.267 1156.73 590.333 1156.53 590.267 1156.33 590.267 1156.13 590.2 1156 590.067 1155.8 590 1155.67 589.8 1155.53 589.6 1155.33 589.4 1155.27 589.133 1155.2 588.867 1155.13 588.6 1155.2 588.4 1155.27 588.133 1155.33 587.867 1155.47 587.667 1155.73 587.4 1155.93 587.133 1156.2 586.933 1156.47 586.667 1156.6 586.6 1156.73 586.533 1156.87 586.4 1157 586.333 1157.13 586.267 1157.33 586.2 1157.47 586.133 1157.6 586.067 1157.8 586 1157.93 585.933 1158.07 585.867 1158.07 585.867 1158.13 585.867 1158.2 585.867 1158.2 585.867 1158.2 585.867 1158.27 585.933 1158.27 586L1158.8 586.867C1158.8 586.933 1158.8 587 1158.73 587.067L1158.4 587.333C1158.33 587.4 1158.27 587.4 1158.2 587.333L1157.6 586.8C1157.47 586.8 1157.33 586.8 1157.2 586.867 1157.07 586.933 1156.87 587 1156.73 587.133 1156.4 587.333 1156.2 587.6 1156.13 587.933 1156.07 588.2 1156.13 588.467 1156.33 588.733 1156.47 588.867 1156.6 589 1156.73 589.067 1156.87 589.133 1157 589.133 1157.2 589.133 1157.33 589.133 1157.53 589.133 1157.67 589.067 1157.87 589 1158 589 1158.2 588.933 1158.47 588.867 1158.73 588.867 1159 588.8 1159.27 588.733 1159.53 588.733 1159.8 588.733 1160.07 588.733 1160.27 588.8 1160.53 588.867 1160.73 588.933 1160.93 589.133 1161.13 589.4 1161.33 589.733 1161.47 590 1161.47 590.267 1161.47 590.533 1161.47 590.8 1161.33 591.067 1161.2 591.333 1161.07 591.6 1160.8 591.8 1160.6 592.067 1160.33 592.267 1160 592.533 1159.73 592.733 1159.47 592.933 1159.13 593.067 1158.8 593.2 1158.47 593.4 1158.47 593.4 1158.4 593.4 1158.33 593.4 1158.33 593.4 1158.33 593.4 1158.27 593.333 1158.27 593.267L1157.73 592.4C1157.67 592.333 1157.73 592.267 1157.8 592.2L1158.13 591.933C1158.2 591.867 1158.27 591.867 1158.33 591.933L1158.87 592.533Z" fill="#000000" fill-rule="nonzero" fill-opacity="1"/></g><g clip-path="url(#clip12)"><path d="M1163.67 582.667C1163.67 582.733 1163.67 582.8 1163.6 582.867L1163.2 583.2C1163.13 583.267 1163.13 583.333 1163.13 583.4L1165.67 588.133C1165.67 588.2 1165.8 588.2 1165.87 588.2L1166.33 588.067C1166.4 588.067 1166.47 588.067 1166.53 588.133L1166.6 588.267C1166.6 588.333 1166.6 588.4 1166.53 588.4L1164.4 589.533C1164.33 589.533 1164.27 589.533 1164.27 589.467L1164.2 589.333C1164.2 589.267 1164.2 589.2 1164.27 589.133L1164.67 588.8C1164.73 588.733 1164.73 588.667 1164.73 588.6L1162.2 583.867C1162.2 583.8 1162.07 583.8 1162 583.8L1161.53 583.933C1161.47 583.933 1161.4 583.933 1161.33 583.867L1161.27 583.733C1161.27 583.667 1161.27 583.6 1161.33 583.6L1163.47 582.467C1163.53 582.467 1163.6 582.467 1163.6 582.533L1163.67 582.667Z" fill="#000000" fill-rule="nonzero" fill-opacity="1"/></g><g clip-path="url(#clip13)"><path d="M1166.27 581.133C1166.27 581.067 1166.33 581.067 1166.4 581L1171.33 579.2C1171.4 579.2 1171.47 579.133 1171.53 579.2 1171.53 579.2 1171.6 579.267 1171.67 579.333L1172.07 580.4C1172.07 580.467 1172.07 580.533 1172 580.533L1171.6 580.667C1171.53 580.667 1171.47 580.667 1171.4 580.6L1171.07 580.067C1171 580 1170.93 580 1170.87 580L1170.33 580.133C1170.27 580.133 1170.13 580.2 1170.13 580.2L1169.6 580.4 1171.47 585.533C1171.47 585.6 1171.53 585.667 1171.6 585.6L1172.13 585.533C1172.2 585.533 1172.27 585.533 1172.27 585.6L1172.33 585.733C1172.33 585.8 1172.33 585.867 1172.27 585.867L1170 586.667C1169.93 586.667 1169.87 586.667 1169.87 586.6L1169.8 586.467C1169.8 586.4 1169.8 586.333 1169.87 586.267L1170.33 586C1170.4 585.933 1170.4 585.867 1170.4 585.8L1168.53 580.667 1168 580.867C1167.93 580.867 1167.87 580.933 1167.8 580.933L1167.33 581.333C1167.27 581.333 1167.2 581.467 1167.27 581.533L1167.33 582.133C1167.33 582.2 1167.27 582.267 1167.2 582.267L1166.8 582.4C1166.73 582.4 1166.67 582.4 1166.67 582.333L1166.33 581.267C1166.27 581.267 1166.27 581.2 1166.27 581.133" fill="#000000" fill-rule="nonzero" fill-opacity="1"/></g><g clip-path="url(#clip14)"><path d="M1178.4 581.8 1176.2 582.2 1175.87 584.2C1175.87 584.267 1175.93 584.333 1176 584.333L1176.47 584.333C1176.53 584.333 1176.6 584.4 1176.6 584.467L1176.6 584.6C1176.6 584.667 1176.6 584.733 1176.53 584.733L1174.6 585.067C1174.53 585.067 1174.47 585.067 1174.47 585L1174.47 584.867C1174.47 584.8 1174.47 584.733 1174.53 584.733L1174.93 584.533C1175 584.533 1175.07 584.4 1175.07 584.4L1176.27 578.067C1176.27 578 1176.33 577.933 1176.4 577.933L1177.27 577.8C1177.33 577.8 1177.4 577.8 1177.47 577.867L1180.6 583.4C1180.6 583.467 1180.73 583.533 1180.8 583.533L1181.2 583.533C1181.27 583.533 1181.33 583.6 1181.33 583.667L1181.33 583.8C1181.33 583.867 1181.33 583.933 1181.27 583.933L1179 584.333C1178.93 584.333 1178.87 584.333 1178.87 584.267L1178.87 584.133C1178.87 584.067 1178.87 584 1178.93 583.933L1179.33 583.733C1179.4 583.733 1179.4 583.667 1179.4 583.6L1178.4 581.8ZM1176.8 578.933 1176.27 581.733 1178.13 581.4 1176.8 578.933Z" fill="#000000" fill-rule="nonzero" fill-opacity="1"/></g><g clip-path="url(#clip15)"><path d="M1184.53 583.2C1184.67 583.267 1184.87 583.333 1185 583.333 1185.2 583.4 1185.33 583.4 1185.47 583.4 1185.93 583.4 1186.27 583.333 1186.53 583.133 1186.8 582.933 1186.93 582.667 1186.93 582.267 1186.93 582.067 1186.87 581.867 1186.8 581.733 1186.73 581.6 1186.6 581.467 1186.4 581.333 1186.27 581.2 1186.07 581.133 1185.87 581 1185.67 580.933 1185.53 580.8 1185.33 580.733 1185.07 580.6 1184.8 580.467 1184.6 580.333 1184.4 580.2 1184.2 580.067 1184.07 579.933 1183.93 579.8 1183.8 579.667 1183.73 579.467 1183.67 579.267 1183.6 579.067 1183.6 578.8 1183.6 578.533 1183.67 578.267 1183.8 578.067 1183.93 577.867 1184.07 577.667 1184.33 577.533 1184.53 577.4 1184.8 577.267 1185.13 577.2 1185.47 577.133 1185.8 577.067 1186.13 577.067 1186.27 577.067 1186.4 577.067 1186.6 577.067 1186.73 577.067 1186.93 577.133 1187.07 577.133 1187.2 577.133 1187.4 577.2 1187.53 577.2 1187.67 577.267 1187.8 577.267 1187.8 577.267 1187.87 577.267 1187.93 577.333 1187.93 577.333 1187.93 577.333 1187.93 577.4 1187.93 577.467L1187.8 578.467C1187.8 578.533 1187.73 578.6 1187.67 578.6L1187.27 578.6C1187.2 578.6 1187.13 578.533 1187.13 578.467L1186.93 577.667C1186.8 577.733 1186.67 577.667 1186.53 577.6 1186.4 577.533 1186.2 577.533 1186 577.533 1185.6 577.533 1185.33 577.6 1185.07 577.8 1184.87 578 1184.73 578.2 1184.73 578.533 1184.73 578.733 1184.8 578.933 1184.87 579.067 1184.93 579.2 1185.07 579.333 1185.2 579.4 1185.33 579.467 1185.47 579.6 1185.6 579.667 1185.73 579.733 1185.93 579.8 1186.07 579.867 1186.27 580 1186.53 580.133 1186.8 580.2 1187.07 580.333 1187.27 580.467 1187.47 580.6 1187.67 580.733 1187.8 580.933 1187.93 581.133 1188.07 581.333 1188.13 581.6 1188.13 581.867 1188.13 582.267 1188.07 582.533 1187.87 582.8 1187.73 583.067 1187.53 583.267 1187.27 583.4 1187 583.533 1186.73 583.667 1186.4 583.733 1186.07 583.8 1185.73 583.8 1185.33 583.8 1185 583.8 1184.67 583.8 1184.33 583.733 1184 583.667 1183.6 583.6 1183.6 583.6 1183.53 583.6 1183.47 583.533 1183.47 583.533 1183.47 583.533 1183.47 583.467 1183.47 583.4L1183.6 582.4C1183.6 582.333 1183.67 582.267 1183.73 582.267L1184.13 582.267C1184.2 582.267 1184.27 582.333 1184.27 582.4L1184.53 583.2Z" fill="#000000" fill-rule="nonzero" fill-opacity="1"/></g><g clip-path="url(#clip16)"><path d="M1201.8 585.867C1201.07 586.267 1200.2 586.267 1199.2 586 1198.73 585.867 1198.33 585.667 1198 585.4 1197.67 585.133 1197.4 584.8 1197.27 584.467 1197.07 584.133 1197 583.733 1197 583.267 1197 582.8 1197.07 582.333 1197.27 581.8 1197.47 581.267 1197.67 580.8 1197.93 580.4 1198.2 580 1198.53 579.733 1198.87 579.533 1199.2 579.333 1199.6 579.267 1200.07 579.2 1200.47 579.2 1200.93 579.267 1201.4 579.4 1201.87 579.533 1202.27 579.733 1202.6 580 1202.93 580.267 1203.2 580.6 1203.33 580.933 1203.53 581.267 1203.6 581.667 1203.6 582.133 1203.6 582.6 1203.53 583.067 1203.33 583.6 1203.07 584.8 1202.53 585.533 1201.8 585.867M1202.4 581.067C1202.2 580.533 1201.87 580.133 1201.27 579.933 1200.67 579.733 1200.13 579.8 1199.67 580.133 1199.2 580.467 1198.8 581.133 1198.53 582.067 1198.2 583 1198.13 583.8 1198.33 584.333 1198.53 584.867 1198.87 585.267 1199.47 585.467 1200.07 585.667 1200.6 585.6 1201.07 585.267 1201.53 584.933 1201.93 584.267 1202.2 583.333 1202.53 582.4 1202.6 581.667 1202.4 581.067" fill="#000000" fill-rule="nonzero" fill-opacity="1"/></g><g clip-path="url(#clip17)"><path d="M1205.73 587.867C1205.87 588 1205.93 588.133 1206.07 588.2 1206.2 588.333 1206.33 588.4 1206.47 588.467 1206.87 588.667 1207.2 588.733 1207.53 588.733 1207.87 588.667 1208.07 588.467 1208.27 588.2 1208.4 588 1208.4 587.8 1208.4 587.667 1208.4 587.467 1208.33 587.333 1208.27 587.133 1208.2 586.933 1208.07 586.8 1208 586.6 1207.87 586.467 1207.73 586.267 1207.67 586.067 1207.53 585.8 1207.33 585.6 1207.2 585.4 1207.07 585.2 1207 585 1206.93 584.8 1206.87 584.6 1206.87 584.4 1206.87 584.2 1206.87 584 1206.93 583.8 1207.07 583.533 1207.2 583.267 1207.4 583.067 1207.6 582.933 1207.8 582.8 1208.07 582.733 1208.33 582.667 1208.6 582.667 1208.87 582.667 1209.2 582.733 1209.53 582.8 1209.8 582.933 1210.13 583.133 1210.27 583.2 1210.4 583.267 1210.53 583.4 1210.67 583.467 1210.8 583.6 1210.93 583.667 1211.07 583.8 1211.2 583.867 1211.27 584 1211.4 584.133 1211.47 584.2 1211.47 584.2 1211.53 584.267 1211.53 584.333 1211.53 584.333 1211.53 584.333 1211.47 584.4 1211.47 584.467L1210.87 585.333C1210.8 585.4 1210.73 585.4 1210.67 585.4L1210.33 585.2C1210.27 585.2 1210.27 585.067 1210.27 585L1210.47 584.2C1210.4 584.133 1210.33 584 1210.2 583.867 1210.07 583.733 1209.93 583.667 1209.73 583.533 1209.4 583.333 1209.07 583.267 1208.8 583.333 1208.53 583.4 1208.27 583.533 1208.13 583.8 1208.07 584 1208 584.133 1208 584.267 1208 584.4 1208.07 584.6 1208.13 584.733 1208.2 584.867 1208.27 585 1208.4 585.133 1208.53 585.267 1208.6 585.4 1208.73 585.6 1208.87 585.8 1209 586 1209.2 586.267 1209.33 586.467 1209.47 586.733 1209.6 586.933 1209.67 587.2 1209.73 587.4 1209.73 587.667 1209.73 587.933 1209.67 588.133 1209.53 588.4 1209.33 588.733 1209.13 588.933 1208.87 589.067 1208.6 589.2 1208.33 589.267 1208.07 589.333 1207.8 589.333 1207.47 589.333 1207.2 589.2 1206.87 589.067 1206.53 588.933 1206.2 588.8 1205.87 588.667 1205.6 588.467 1205.33 588.267 1205.07 588.067 1204.73 587.8 1204.73 587.8 1204.67 587.733 1204.67 587.733 1204.67 587.667 1204.67 587.667 1204.73 587.6 1204.73 587.533L1205.33 586.667C1205.4 586.6 1205.47 586.6 1205.53 586.6L1205.87 586.8C1205.93 586.8 1205.93 586.933 1205.93 587L1205.73 587.867Z" fill="#000000" fill-rule="nonzero" fill-opacity="1"/></g><g clip-path="url(#clip18)"><path d="M1212.67 592.267C1212.6 592.333 1212.67 592.4 1212.67 592.467L1213.47 593.133C1213.53 593.2 1213.6 593.267 1213.67 593.267L1214.13 593.6C1214.2 593.667 1214.27 593.667 1214.33 593.6L1214.87 593.2C1214.93 593.133 1215 593.133 1215.07 593.2L1215.4 593.467C1215.47 593.533 1215.47 593.6 1215.4 593.667L1214.67 594.533C1214.6 594.6 1214.6 594.667 1214.53 594.667 1214.53 594.667 1214.47 594.667 1214.4 594.6L1210.87 591.8C1210.8 591.733 1210.8 591.667 1210.87 591.6L1210.93 591.467C1211 591.4 1211.07 591.4 1211.13 591.4L1211.6 591.667C1211.67 591.667 1211.73 591.667 1211.8 591.6L1215.07 587.4C1215.13 587.333 1215.13 587.267 1215.07 587.2L1214.73 586.8C1214.67 586.733 1214.67 586.667 1214.73 586.6L1214.8 586.467C1214.87 586.4 1214.93 586.4 1215 586.467L1216.87 587.933C1216.93 588 1216.93 588.067 1216.87 588.133L1216.8 588.267C1216.73 588.333 1216.67 588.333 1216.6 588.333L1216.13 588.067C1216.07 588.067 1216 588.067 1215.93 588.133L1212.67 592.267Z" fill="#000000" fill-rule="nonzero" fill-opacity="1"/></g><g clip-path="url(#clip19)"><path d="M1220.53 599.733C1219.73 599.667 1218.93 599.267 1218.27 598.533 1217.93 598.133 1217.67 597.8 1217.53 597.4 1217.4 597 1217.33 596.6 1217.33 596.2 1217.4 595.8 1217.47 595.4 1217.73 595 1217.93 594.6 1218.27 594.267 1218.67 593.867 1219.13 593.467 1219.53 593.2 1219.93 593 1220.33 592.8 1220.8 592.733 1221.2 592.733 1221.6 592.733 1222 592.867 1222.4 593.067 1222.8 593.267 1223.13 593.533 1223.47 593.933 1223.8 594.333 1224.07 594.667 1224.2 595.067 1224.33 595.467 1224.4 595.867 1224.4 596.267 1224.33 596.667 1224.27 597.067 1224 597.467 1223.8 597.867 1223.47 598.267 1223.07 598.6 1222.2 599.4 1221.4 599.8 1220.53 599.733M1223.53 595.933C1223.67 595.333 1223.53 594.867 1223.13 594.4 1222.73 593.933 1222.2 593.733 1221.67 593.733 1221.07 593.8 1220.4 594.133 1219.67 594.8 1218.93 595.467 1218.47 596.067 1218.33 596.667 1218.2 597.267 1218.33 597.733 1218.73 598.267 1219.13 598.733 1219.67 598.933 1220.2 598.933 1220.8 598.867 1221.47 598.533 1222.2 597.867 1222.93 597.067 1223.4 596.467 1223.53 595.933" fill="#000000" fill-rule="nonzero" fill-opacity="1"/></g><g clip-path="url(#clip20)"><path d="M1226.27 603.933C1226.33 603.867 1226.33 603.8 1226.27 603.733L1225.53 602.533 1223.13 604 1223.93 605.333C1224 605.4 1224 605.467 1224.07 605.533L1224.33 606C1224.4 606.067 1224.47 606.067 1224.53 606.067L1225.2 605.867C1225.27 605.867 1225.33 605.867 1225.4 605.933L1225.6 606.333C1225.6 606.4 1225.6 606.467 1225.53 606.467L1224.53 607C1224.47 607 1224.4 607.067 1224.4 607.067 1224.4 607.067 1224.33 607.067 1224.27 607L1221.73 602.8C1221.67 602.733 1221.73 602.667 1221.8 602.667L1221.93 602.6C1222 602.533 1222.07 602.6 1222.13 602.6L1222.47 603C1222.53 603.067 1222.6 603.067 1222.67 603L1227.27 600.267C1227.33 600.2 1227.33 600.133 1227.33 600.067L1227.13 599.6C1227.13 599.533 1227.13 599.467 1227.2 599.4L1227.33 599.333C1227.4 599.267 1227.47 599.333 1227.47 599.4L1229.87 603.4C1229.93 603.467 1229.93 603.533 1229.93 603.6 1229.93 603.667 1229.87 603.667 1229.8 603.733L1228.87 604.333C1228.8 604.4 1228.73 604.333 1228.73 604.267L1228.53 603.933C1228.47 603.867 1228.53 603.8 1228.53 603.733L1229.07 603.267C1229.13 603.2 1229.13 603.133 1229.13 603.067L1228.87 602.6C1228.87 602.533 1228.8 602.467 1228.73 602.4L1228 601.2 1225.87 602.467 1226.6 603.667C1226.6 603.733 1226.73 603.733 1226.8 603.733L1227.27 603.533C1227.33 603.533 1227.4 603.533 1227.47 603.6L1227.67 603.933C1227.73 604 1227.67 604.067 1227.6 604.133L1226.07 605.067C1226 605.133 1225.93 605.067 1225.87 605L1225.67 604.667C1225.6 604.6 1225.67 604.533 1225.67 604.467L1226.27 603.933Z" fill="#000000" fill-rule="nonzero" fill-opacity="1"/></g><g clip-path="url(#clip21)"><path d="M1147.47 601.067C1147.4 601.067 1147.33 601.067 1147.27 601.133L1146.53 602.333 1148.87 603.867 1149.67 602.6C1149.73 602.533 1149.73 602.467 1149.8 602.4L1150.07 601.933C1150.07 601.867 1150.07 601.8 1150.07 601.733L1149.6 601.267C1149.53 601.2 1149.53 601.133 1149.6 601.067L1149.87 600.733C1149.93 600.667 1150 600.667 1150 600.733L1150.93 601.4C1151 601.467 1151.07 601.467 1151.07 601.533 1151.07 601.533 1151.07 601.6 1151.07 601.667L1148.4 605.8C1148.27 605.667 1148.2 605.667 1148.13 605.667L1148 605.533C1147.93 605.467 1147.93 605.4 1147.93 605.333L1148.13 604.867C1148.13 604.8 1148.13 604.733 1148.07 604.667L1143.6 601.733C1143.53 601.667 1143.47 601.733 1143.4 601.733L1143.07 602.133C1143 602.2 1142.93 602.2 1142.87 602.133L1142.73 602.067C1142.67 602.067 1142.67 602 1142.67 601.933L1145.2 598C1145.27 597.933 1145.27 597.867 1145.33 597.867 1145.4 597.867 1145.47 597.867 1145.47 597.933L1146.47 598.533C1146.53 598.6 1146.53 598.667 1146.53 598.667L1146.33 599C1146.27 599.067 1146.2 599.067 1146.13 599.067L1145.47 598.8C1145.4 598.8 1145.33 598.8 1145.27 598.867L1144.93 599.267C1144.87 599.333 1144.8 599.4 1144.8 599.467L1144.07 600.6 1146.13 601.933 1146.93 600.733C1147 600.667 1146.93 600.6 1146.93 600.533L1146.53 600.333C1146.47 600.267 1146.47 600.2 1146.53 600.133L1146.73 599.867C1146.8 599.8 1146.87 599.8 1146.93 599.8L1148.47 600.8C1148.53 600.867 1148.53 600.933 1148.53 601L1148.33 601.333C1148.27 601.4 1148.2 601.4 1148.13 601.4L1147.47 601.067Z" fill="#000000" fill-rule="nonzero" fill-opacity="1"/></g><g clip-path="url(#clip22)"><path d="M1232.67 609.2C1232.67 609.267 1232.67 609.333 1232.67 609.4L1229.27 614.133 1233.27 612.733C1233.33 612.733 1233.4 612.667 1233.33 612.6L1233.27 612.067C1233.27 612 1233.33 611.933 1233.33 611.933L1233.47 611.867C1233.53 611.867 1233.6 611.867 1233.6 611.933L1234.27 613.867C1234.27 613.933 1234.27 614 1234.2 614L1234.07 614.067C1234 614.067 1233.93 614.067 1233.87 614L1233.6 613.533C1233.53 613.467 1233.47 613.467 1233.4 613.467L1227.8 615.4C1227.73 615.4 1227.67 615.4 1227.67 615.333L1227.47 614.8C1227.47 614.733 1227.47 614.667 1227.47 614.6L1231.4 609.2 1226.8 610.8C1226.73 610.8 1226.67 610.867 1226.73 610.933L1226.8 611.467C1226.8 611.533 1226.73 611.6 1226.73 611.6L1226.6 611.667C1226.53 611.667 1226.47 611.667 1226.47 611.6L1225.8 609.667C1225.8 609.6 1225.8 609.533 1225.87 609.533L1226 609.467C1226.07 609.467 1226.13 609.467 1226.2 609.533L1226.47 610C1226.53 610.067 1226.6 610.067 1226.67 610.067L1231.73 608.333C1231.8 608.333 1231.87 608.267 1231.8 608.2L1231.73 607.667C1231.73 607.6 1231.8 607.533 1231.8 607.533L1231.93 607.467C1232 607.467 1232.07 607.467 1232.07 607.533L1232.67 609.2Z" fill="#000000" fill-rule="nonzero" fill-opacity="1"/></g><g clip-path="url(#clip23)"><path d="M1229.13 619.4C1229.07 619.533 1229.07 619.733 1229.07 619.867 1229.07 620.067 1229.07 620.2 1229.07 620.333 1229.13 620.8 1229.27 621.133 1229.53 621.333 1229.73 621.533 1230.07 621.667 1230.4 621.6 1230.6 621.6 1230.8 621.467 1230.93 621.4 1231.07 621.267 1231.2 621.133 1231.27 621 1231.33 620.867 1231.47 620.667 1231.47 620.467 1231.53 620.267 1231.6 620.067 1231.67 619.867 1231.8 619.6 1231.87 619.333 1231.93 619.067 1232 618.867 1232.13 618.667 1232.27 618.467 1232.4 618.333 1232.53 618.133 1232.67 618.067 1232.87 617.933 1233.07 617.867 1233.33 617.867 1233.6 617.8 1233.87 617.867 1234.13 617.933 1234.4 618 1234.6 618.133 1234.73 618.333 1234.93 618.533 1235.07 618.8 1235.2 619.067 1235.33 619.333 1235.4 619.667 1235.47 620.067 1235.47 620.2 1235.47 620.333 1235.53 620.533 1235.53 620.667 1235.53 620.867 1235.53 621 1235.53 621.133 1235.53 621.333 1235.53 621.467 1235.53 621.6 1235.47 621.733 1235.47 621.733 1235.47 621.8 1235.4 621.867 1235.4 621.867 1235.4 621.867 1235.33 621.867 1235.27 621.867L1234.27 621.867C1234.2 621.867 1234.13 621.8 1234.13 621.733L1234.07 621.333C1234.07 621.267 1234.07 621.2 1234.13 621.2L1234.87 620.933C1234.93 620.867 1234.93 620.733 1235 620.533 1235 620.4 1235 620.2 1235 620 1234.93 619.6 1234.8 619.333 1234.6 619.133 1234.4 618.933 1234.13 618.867 1233.8 618.933 1233.6 618.933 1233.47 619 1233.33 619.133 1233.2 619.2 1233.13 619.333 1233.07 619.467 1233 619.6 1232.93 619.733 1232.87 619.933 1232.8 620.067 1232.73 620.267 1232.73 620.467 1232.67 620.733 1232.53 620.933 1232.47 621.2 1232.4 621.467 1232.27 621.733 1232.13 621.933 1232 622.133 1231.87 622.333 1231.67 622.467 1231.47 622.6 1231.27 622.733 1230.93 622.733 1230.53 622.8 1230.27 622.733 1230 622.6 1229.73 622.467 1229.53 622.333 1229.33 622.133 1229.13 621.933 1229 621.667 1228.93 621.333 1228.8 621 1228.73 620.667 1228.67 620.267 1228.6 619.933 1228.6 619.6 1228.6 619.267 1228.6 618.933 1228.67 618.533 1228.67 618.533 1228.67 618.467 1228.67 618.4 1228.73 618.4 1228.73 618.4 1228.8 618.4 1228.87 618.4L1229.87 618.4C1229.93 618.4 1230 618.467 1230 618.533L1230.07 618.933C1230.07 619 1230 619.067 1230 619.067L1229.13 619.4Z" fill="#000000" fill-rule="nonzero" fill-opacity="1"/></g><g clip-path="url(#clip24)"><path d="M1235.6 628.4C1235.53 628.4 1235.47 628.333 1235.47 628.267L1235.33 627.733C1235.33 627.667 1235.27 627.6 1235.2 627.6L1229.87 627.6C1229.8 627.6 1229.73 627.667 1229.73 627.733L1229.67 628.267C1229.67 628.333 1229.6 628.4 1229.53 628.4L1229.4 628.4C1229.33 628.4 1229.27 628.333 1229.27 628.267L1229.27 625.867C1229.27 625.8 1229.33 625.733 1229.4 625.733L1229.53 625.733C1229.6 625.733 1229.67 625.8 1229.67 625.867L1229.73 626.4C1229.73 626.467 1229.8 626.533 1229.87 626.533L1235.2 626.533C1235.27 626.533 1235.33 626.467 1235.33 626.4L1235.4 625.867C1235.4 625.8 1235.47 625.733 1235.53 625.733L1235.67 625.733C1235.73 625.733 1235.8 625.8 1235.8 625.867L1235.8 628.267C1235.8 628.333 1235.73 628.4 1235.67 628.4L1235.6 628.4Z" fill="#000000" fill-rule="nonzero" fill-opacity="1"/></g><g clip-path="url(#clip25)"><path d="M1229.47 632.467C1229.4 632.6 1229.33 632.733 1229.27 632.933 1229.2 633.133 1229.13 633.267 1229.13 633.4 1229.07 633.867 1229.13 634.2 1229.27 634.467 1229.4 634.733 1229.67 634.933 1230 635 1230.2 635.067 1230.4 635 1230.6 634.933 1230.73 634.867 1230.93 634.733 1231.07 634.667 1231.2 634.533 1231.33 634.4 1231.47 634.2 1231.6 634 1231.73 633.867 1231.8 633.733 1232 633.467 1232.13 633.267 1232.33 633.067 1232.47 632.867 1232.67 632.733 1232.8 632.6 1232.93 632.467 1233.13 632.4 1233.33 632.333 1233.53 632.267 1233.73 632.267 1234 632.333 1234.27 632.4 1234.53 632.467 1234.73 632.6 1234.93 632.733 1235.07 632.933 1235.2 633.2 1235.33 633.467 1235.4 633.733 1235.4 634.067 1235.4 634.4 1235.4 634.733 1235.33 635.067 1235.33 635.2 1235.27 635.333 1235.27 635.533 1235.2 635.667 1235.2 635.867 1235.13 636 1235.07 636.133 1235 636.333 1234.93 636.467 1234.87 636.6 1234.8 636.733 1234.8 636.733 1234.8 636.8 1234.73 636.867 1234.73 636.867 1234.73 636.867 1234.67 636.867 1234.6 636.867L1233.6 636.6C1233.53 636.6 1233.47 636.533 1233.53 636.467L1233.6 636.067C1233.6 636 1233.67 635.933 1233.73 635.933L1234.53 635.867C1234.6 635.8 1234.67 635.667 1234.73 635.533 1234.8 635.4 1234.87 635.2 1234.87 635 1234.93 634.6 1234.87 634.333 1234.73 634.067 1234.6 633.8 1234.33 633.667 1234.07 633.6 1233.87 633.533 1233.67 633.6 1233.53 633.667 1233.4 633.733 1233.27 633.8 1233.13 633.933 1233 634.067 1232.93 634.2 1232.8 634.333 1232.73 634.467 1232.6 634.6 1232.47 634.8 1232.33 635 1232.13 635.2 1232 635.467 1231.87 635.667 1231.67 635.867 1231.47 636.067 1231.27 636.267 1231.07 636.4 1230.87 636.467 1230.67 636.533 1230.4 636.6 1230.07 636.533 1229.67 636.467 1229.4 636.333 1229.2 636.133 1229 635.933 1228.8 635.733 1228.73 635.467 1228.6 635.2 1228.6 634.933 1228.53 634.6 1228.53 634.267 1228.53 633.933 1228.6 633.533 1228.67 633.2 1228.73 632.867 1228.87 632.533 1229 632.2 1229.13 631.8 1229.13 631.8 1229.13 631.733 1229.2 631.667 1229.2 631.667 1229.2 631.667 1229.27 631.667 1229.33 631.667L1230.33 631.933C1230.4 631.933 1230.47 632 1230.4 632.067L1230.33 632.467C1230.33 632.533 1230.27 632.6 1230.2 632.6L1229.47 632.467Z" fill="#000000" fill-rule="nonzero" fill-opacity="1"/></g><g clip-path="url(#clip26)"><path d="M1157.33 666.933C1157.4 666.933 1157.47 666.933 1157.53 666.867L1160.27 662.933 1155.13 665.867C1155.07 665.867 1155 665.867 1154.93 665.867L1154.73 665.733C1154.67 665.667 1154.67 665.6 1154.67 665.533L1156.13 660 1153 663.4C1152.93 663.467 1152.93 663.533 1153 663.6L1153.33 664C1153.4 664.067 1153.4 664.133 1153.33 664.2L1153.2 664.333C1153.13 664.4 1153.07 664.4 1153 664.333L1151.47 662.933C1151.4 662.867 1151.4 662.8 1151.47 662.733L1151.6 662.6C1151.67 662.533 1151.73 662.533 1151.8 662.6L1152.27 662.867C1152.33 662.933 1152.4 662.867 1152.47 662.867L1156 658.933C1156.07 658.867 1156.07 658.8 1156 658.733L1155.67 658.333C1155.6 658.267 1155.6 658.2 1155.67 658.133L1155.73 658C1155.8 657.933 1155.87 657.933 1155.93 658L1157.53 659.267C1157.6 659.333 1157.6 659.4 1157.6 659.467L1156.33 664.333 1160.67 662C1160.73 662 1160.8 662 1160.87 662L1162.4 663.267C1162.47 663.333 1162.47 663.4 1162.4 663.467L1162.27 663.6C1162.2 663.667 1162.13 663.667 1162.07 663.667L1161.6 663.4C1161.53 663.4 1161.47 663.4 1161.4 663.467L1158.4 667.733C1158.33 667.8 1158.4 667.867 1158.4 667.933L1158.73 668.333C1158.8 668.4 1158.8 668.467 1158.73 668.533L1158.67 668.667C1158.6 668.733 1158.53 668.733 1158.47 668.667L1156.53 667.267C1156.47 667.2 1156.47 667.133 1156.53 667.067L1156.6 666.933C1156.67 666.867 1156.73 666.867 1156.8 666.867L1157.33 666.933Z" fill="#000000" fill-rule="nonzero" fill-opacity="1"/></g><g clip-path="url(#clip27)"><path d="M1168.8 666.6C1169.27 666.867 1169.67 667.133 1170.07 667.4 1170.4 667.667 1170.67 668.067 1170.87 668.4 1171.07 668.8 1171.13 669.2 1171.13 669.667 1171.13 670.133 1170.93 670.6 1170.67 671.2 1170.4 671.733 1170.07 672.133 1169.73 672.4 1169.4 672.733 1169 672.933 1168.6 673 1168.2 673.133 1167.73 673.133 1167.27 673 1166.8 672.933 1165.93 672.533 1165.93 672.533 1165.87 672.533 1165.8 672.467 1165.73 672.4L1163.4 671.2C1163.33 671.2 1163.33 671.067 1163.33 671.067L1163.33 671C1163.33 670.933 1163.47 670.933 1163.53 670.933L1164 671.067C1164.07 671.067 1164.13 671.067 1164.2 671L1166.6 666.267C1166.6 666.2 1166.6 666.133 1166.53 666.067L1166.13 665.733C1166.07 665.667 1166.07 665.6 1166.07 665.533L1166.13 665.4C1166.13 665.333 1166.27 665.333 1166.27 665.333L1168.8 666.6ZM1169.87 669.4C1169.93 669 1169.93 668.667 1169.87 668.4 1169.8 668.133 1169.6 667.8 1169.4 667.6 1169.2 667.333 1168.6 667 1168.6 667 1168.53 666.933 1168.47 666.933 1168.4 666.867L1167.8 666.533 1165.2 671.6 1165.8 671.867C1166.07 672 1166.33 672.133 1166.6 672.2 1166.87 672.267 1167.13 672.333 1167.33 672.333 1167.73 672.333 1168.07 672.133 1168.47 671.867 1168.8 671.6 1169.2 671.133 1169.47 670.533 1169.67 670.2 1169.8 669.733 1169.87 669.4" fill="#000000" fill-rule="nonzero" fill-opacity="1"/></g><g clip-path="url(#clip28)"><path d="M1180.2 671.267C1180.2 671.067 1180.2 671 1180.2 670.867 1180.2 670.667 1180.13 670.6 1179.93 670.467 1179.87 670.4 1179.8 670.4 1179.67 670.333 1179.53 670.267 1179.33 670.2 1179.2 670.2 1178.87 670.133 1178.53 670.133 1178.27 670.2 1178 670.267 1177.73 670.4 1177.47 670.6 1177.2 670.8 1177.07 671.067 1176.87 671.4 1176.73 671.733 1176.6 672.133 1176.47 672.6 1176.27 673.6 1176.33 674.333 1176.67 674.867 1177 675.4 1177.53 675.733 1178.27 675.867 1178.47 675.933 1178.73 675.933 1179 675.933 1179.2 675.933 1179.47 675.867 1179.8 675.867 1179.93 675.867 1180 675.933 1180 675.933L1180 676.067C1180 676.067 1180 676.2 1179.87 676.267 1179.6 676.333 1179.33 676.467 1179 676.467 1178.6 676.533 1178.2 676.533 1177.73 676.4 1177.27 676.333 1176.87 676.2 1176.53 676 1176.2 675.8 1175.87 675.533 1175.67 675.267 1175.4 674.933 1175.27 674.6 1175.2 674.133 1175.13 673.667 1175.13 673.133 1175.2 672.533 1175.33 671.933 1175.47 671.4 1175.73 671 1176 670.6 1176.33 670.267 1176.67 670.067 1177 669.867 1177.47 669.667 1177.87 669.667 1178.33 669.6 1178.8 669.6 1179.33 669.733 1179.67 669.8 1180 669.867 1180.27 670 1180.47 670.067 1180.67 670.2 1180.87 670.267 1181.13 670.4 1181.07 670.6 1181.07 670.6L1180.8 671.467C1180.8 671.467 1180.73 671.667 1180.6 671.6 1180.47 671.6 1180.33 671.533 1180.33 671.533 1180.33 671.533 1180.2 671.467 1180.2 671.267" fill="#000000" fill-rule="nonzero" fill-opacity="1"/></g><g clip-path="url(#clip29)"><path d="M1190.33 671.533C1190.27 671.333 1190.27 671.267 1190.2 671.133 1190.13 670.933 1190.07 670.867 1189.87 670.8 1189.8 670.8 1189.67 670.733 1189.6 670.733 1189.47 670.733 1189.27 670.667 1189.07 670.733 1188.73 670.733 1188.4 670.8 1188.13 670.933 1187.87 671.067 1187.67 671.267 1187.47 671.533 1187.27 671.8 1187.13 672.067 1187.07 672.467 1187 672.867 1186.93 673.267 1187 673.667 1187.07 674.667 1187.33 675.333 1187.73 675.8 1188.13 676.267 1188.8 676.467 1189.53 676.4 1189.73 676.4 1190 676.333 1190.27 676.267 1190.47 676.2 1190.73 676.133 1191 676 1191.13 675.933 1191.2 676.067 1191.2 676.067L1191.27 676.2C1191.27 676.2 1191.33 676.333 1191.2 676.4 1191 676.533 1190.67 676.667 1190.4 676.8 1190.07 676.933 1189.6 677 1189.13 677.067 1188.67 677.067 1188.27 677.067 1187.87 676.933 1187.47 676.867 1187.13 676.667 1186.8 676.4 1186.47 676.133 1186.27 675.8 1186.07 675.4 1185.87 675 1185.73 674.467 1185.73 673.867 1185.67 673.267 1185.73 672.733 1185.93 672.267 1186.07 671.8 1186.33 671.4 1186.6 671.133 1186.93 670.8 1187.27 670.6 1187.67 670.4 1188.07 670.267 1188.53 670.133 1189.07 670.133 1189.4 670.133 1189.73 670.133 1190.07 670.2 1190.27 670.267 1190.47 670.267 1190.67 670.333 1190.93 670.4 1190.93 670.6 1190.93 670.6L1190.87 671.533C1190.87 671.533 1190.87 671.733 1190.67 671.733 1190.53 671.733 1190.4 671.733 1190.4 671.733 1190.4 671.733 1190.4 671.733 1190.33 671.533" fill="#000000" fill-rule="nonzero" fill-opacity="1"/></g><g clip-path="url(#clip30)"><path d="M1200.27 669.4C1200.13 669.2 1200.13 669.2 1200.07 669 1200 668.8 1199.87 668.8 1199.67 668.733 1199.6 668.733 1199.47 668.733 1199.4 668.733 1199.27 668.733 1199.07 668.733 1198.87 668.8 1198.53 668.867 1198.27 669 1198 669.2 1197.73 669.4 1197.6 669.6 1197.47 669.867 1197.33 670.133 1197.27 670.467 1197.27 670.867 1197.27 671.267 1197.33 671.667 1197.47 672.067 1197.73 673 1198.13 673.667 1198.67 674 1199.2 674.333 1199.8 674.4 1200.6 674.2 1200.8 674.133 1201.07 674.067 1201.27 673.933 1201.47 673.8 1201.67 673.667 1201.93 673.533 1202.07 673.467 1202.13 673.533 1202.13 673.533L1202.2 673.667C1202.2 673.667 1202.27 673.8 1202.2 673.867 1202 674.067 1201.8 674.267 1201.47 674.467 1201.13 674.667 1200.73 674.867 1200.33 675 1199.93 675.133 1199.47 675.2 1199.07 675.133 1198.67 675.133 1198.27 675 1197.93 674.867 1197.6 674.667 1197.27 674.4 1197 674.067 1196.73 673.733 1196.53 673.2 1196.33 672.667 1196.2 672.067 1196.13 671.533 1196.2 671.067 1196.27 670.6 1196.4 670.2 1196.6 669.8 1196.8 669.467 1197.13 669.133 1197.53 668.867 1197.93 668.6 1198.33 668.4 1198.87 668.267 1199.2 668.2 1199.53 668.133 1199.87 668.133 1200.07 668.133 1200.27 668.133 1200.47 668.133 1200.73 668.133 1200.8 668.333 1200.8 668.333L1200.93 669.267C1200.93 669.267 1200.93 669.467 1200.8 669.533 1200.67 669.6 1200.53 669.6 1200.53 669.6 1200.53 669.6 1200.4 669.6 1200.27 669.4" fill="#000000" fill-rule="nonzero" fill-opacity="1"/></g><g clip-path="url(#clip31)"><path d="M1208.53 667.8 1205.6 666.467C1205.53 666.467 1205.47 666.4 1205.4 666.467L1204.93 666.6C1204.87 666.6 1204.8 666.6 1204.73 666.533L1204.67 666.4C1204.6 666.333 1204.67 666.267 1204.73 666.267L1206.87 665.067C1206.93 665 1207 665.067 1207 665.133L1207.07 665.267C1207.07 665.333 1207.07 665.4 1207.07 665.467L1206.8 665.733C1206.73 665.8 1206.73 665.867 1206.8 665.867L1208.87 666.867 1209.13 664.533C1209.13 664.467 1209.07 664.4 1209 664.467L1208.6 664.6C1208.53 664.6 1208.47 664.6 1208.4 664.533L1208.33 664.4C1208.27 664.333 1208.33 664.267 1208.4 664.2L1210.07 663.267C1210.13 663.267 1210.2 663.267 1210.2 663.333L1210.27 663.467C1210.33 663.533 1210.27 663.6 1210.27 663.667L1209.87 664C1209.8 664.067 1209.8 664.133 1209.73 664.2L1209.4 667.2 1212.67 668.733C1212.73 668.733 1212.8 668.8 1212.87 668.733L1213.33 668.6C1213.4 668.6 1213.47 668.6 1213.53 668.667L1213.6 668.8C1213.6 668.867 1213.6 668.933 1213.53 668.933L1211.4 670.133C1211.33 670.133 1211.27 670.133 1211.27 670.067L1211.2 669.933C1211.2 669.867 1211.2 669.8 1211.2 669.733L1211.47 669.467C1211.53 669.4 1211.53 669.333 1211.47 669.333L1209 668.133 1208.73 670.867C1208.73 670.933 1208.8 671 1208.87 670.933L1209.2 670.8C1209.27 670.8 1209.33 670.8 1209.4 670.867L1209.47 671C1209.53 671.067 1209.47 671.133 1209.4 671.133L1207.73 672.067C1207.67 672.067 1207.6 672.067 1207.6 672L1207.53 671.867C1207.47 671.8 1207.53 671.733 1207.53 671.667L1207.93 671.333C1208 671.267 1208 671.2 1208.07 671.133L1208.53 667.8Z" fill="#000000" fill-rule="nonzero" fill-opacity="1"/></g><g clip-path="url(#clip32)"><path d="M1215.8 658.867C1215.87 658.933 1215.87 659 1215.8 659.067L1215.47 659.467C1215.4 659.533 1215.4 659.6 1215.47 659.667L1219 663.667C1219.07 663.733 1219.13 663.733 1219.2 663.667L1219.67 663.4C1219.73 663.333 1219.8 663.4 1219.87 663.4L1220 663.533C1220.07 663.6 1220.07 663.667 1220 663.733L1218.2 665.333C1218.13 665.4 1218.07 665.4 1218 665.333L1217.87 665.2C1217.8 665.133 1217.8 665.067 1217.87 665L1218.2 664.6C1218.27 664.533 1218.27 664.467 1218.2 664.4L1214.67 660.4C1214.6 660.333 1214.53 660.333 1214.47 660.4L1214 660.667C1213.93 660.733 1213.87 660.667 1213.8 660.667L1213.67 660.533C1213.6 660.467 1213.6 660.4 1213.67 660.333L1215.47 658.733C1215.53 658.667 1215.6 658.667 1215.67 658.733L1215.8 658.867Z" fill="#000000" fill-rule="nonzero" fill-opacity="1"/></g><g clip-path="url(#clip33)"><path d="M1155.67 596.2C1155.73 596.2 1155.8 596.2 1155.87 596.133L1156.87 595.067C1156.93 595 1156.93 594.933 1156.87 594.867L1156.73 594.733C1156.67 594.667 1156.6 594.667 1156.53 594.733L1156.2 595C1156.13 595.067 1156.07 595.067 1156 595.067L1153 594.6C1152.93 594.6 1152.93 594.533 1152.93 594.467 1152.93 594.467 1153.33 593.667 1153.27 593.267 1153.27 592.867 1153.07 592.467 1152.73 592.133 1152.47 591.867 1152.2 591.733 1152 591.733 1151.73 591.667 1151.47 591.733 1151.27 591.8 1151 591.867 1150.8 592 1150.53 592.2 1150.33 592.4 1150 592.733 1150 592.733 1149.93 592.8 1149.87 592.867 1149.8 592.933L1148 594.8C1147.93 594.867 1147.93 594.933 1148 595L1148.13 595.133C1148.2 595.2 1148.27 595.2 1148.33 595.133L1148.73 594.8C1148.8 594.733 1148.87 594.8 1148.93 594.8L1152.8 598.467C1152.87 598.533 1152.87 598.6 1152.8 598.667L1152.53 599.133C1152.47 599.2 1152.53 599.267 1152.53 599.333L1152.67 599.467C1152.73 599.533 1152.8 599.533 1152.87 599.467L1154.53 597.733C1154.6 597.667 1154.6 597.6 1154.53 597.533L1154.4 597.4C1154.33 597.333 1154.27 597.333 1154.2 597.4L1153.8 597.667C1153.73 597.733 1153.67 597.733 1153.6 597.667L1151.8 596 1152.07 595.733C1152.13 595.667 1152.2 595.667 1152.27 595.667L1155.67 596.2ZM1151.53 595.467C1151.47 595.533 1151.47 595.533 1151.47 595.533L1149.53 593.733 1149.87 593.4C1149.93 593.333 1150 593.267 1150.07 593.2 1150.07 593.2 1150.27 593 1150.4 592.867 1150.53 592.733 1150.67 592.667 1150.87 592.667 1151 592.667 1151.2 592.667 1151.33 592.667 1151.47 592.733 1151.67 592.8 1151.87 593 1152.27 593.333 1152.4 593.733 1152.4 594.067 1152.4 594.4 1151.93 595 1151.93 595 1151.87 595.067 1151.8 595.133 1151.8 595.2L1151.53 595.467Z" fill="#000000" fill-rule="nonzero" fill-opacity="1"/></g></g></g></g></svg>